<svg xmlns="http://www.w3.org/2000/svg" viewBox="0 0 32 32" preserveAspectRatio="xMidYMid meet"><style>*{shape-rendering:crispEdges}</style><g transform="translate(0.0,-0.0)"><g fill="#9aff48"><rect x="0" y="0" width="32" height="1"/><rect x="0" y="1" width="32" height="1"/><rect x="0" y="2" width="26" height="1"/><rect x="28" y="2" width="4" height="1"/><rect x="0" y="3" width="25" height="1"/><rect x="29" y="3" width="3" height="1"/><rect x="0" y="4" width="25" height="1"/><rect x="29" y="4" width="3" height="1"/><rect x="0" y="5" width="6" height="1"/><rect x="7" y="5" width="15" height="1"/><rect x="23" y="5" width="3" height="1"/><rect x="28" y="5" width="4" height="1"/><rect x="0" y="6" width="7" height="1"/><rect x="8" y="6" width="13" height="1"/><rect x="22" y="6" width="10" height="1"/><rect x="0" y="7" width="8" height="1"/><rect x="12" y="7" width="5" height="1"/><rect x="21" y="7" width="11" height="1"/><rect x="0" y="8" width="5" height="1"/><rect x="24" y="8" width="8" height="1"/><rect x="0" y="9" width="7" height="1"/><rect x="23" y="9" width="9" height="1"/><rect x="0" y="10" width="6" height="1"/><rect x="24" y="10" width="8" height="1"/><rect x="0" y="11" width="5" height="1"/><rect x="25" y="11" width="7" height="1"/><rect x="0" y="12" width="5" height="1"/><rect x="25" y="12" width="7" height="1"/><rect x="0" y="13" width="5" height="1"/><rect x="26" y="13" width="6" height="1"/><rect x="0" y="14" width="5" height="1"/><rect x="26" y="14" width="6" height="1"/><rect x="0" y="15" width="4" height="1"/><rect x="26" y="15" width="6" height="1"/><rect x="0" y="16" width="4" height="1"/><rect x="26" y="16" width="6" height="1"/><rect x="0" y="17" width="4" height="1"/><rect x="30" y="17" width="2" height="1"/><rect x="0" y="18" width="3" height="1"/><rect x="31" y="18" width="1" height="1"/><rect x="0" y="19" width="3" height="1"/><rect x="31" y="19" width="1" height="1"/><rect x="0" y="20" width="3" height="1"/><rect x="31" y="20" width="1" height="1"/><rect x="0" y="21" width="3" height="1"/><rect x="31" y="21" width="1" height="1"/><rect x="0" y="22" width="2" height="1"/><rect x="30" y="22" width="2" height="1"/><rect x="0" y="23" width="2" height="1"/><rect x="29" y="23" width="3" height="1"/><rect x="0" y="24" width="2" height="1"/><rect x="29" y="24" width="3" height="1"/><rect x="0" y="25" width="1" height="1"/><rect x="30" y="25" width="2" height="1"/><rect x="0" y="26" width="1" height="1"/><rect x="31" y="26" width="1" height="1"/></g><g fill="#ff35bc"><rect x="26" y="2" width="2" height="1"/><rect x="25" y="3" width="1" height="1"/><rect x="28" y="3" width="1" height="1"/><rect x="25" y="4" width="1" height="1"/><rect x="28" y="4" width="1" height="1"/><rect x="26" y="5" width="2" height="1"/><rect x="6" y="15" width="9" height="1"/><rect x="6" y="16" width="14" height="1"/><rect x="6" y="17" width="15" height="1"/><rect x="6" y="18" width="16" height="1"/><rect x="6" y="19" width="16" height="1"/><rect x="6" y="20" width="16" height="1"/><rect x="6" y="21" width="16" height="1"/><rect x="6" y="22" width="16" height="1"/><rect x="7" y="23" width="14" height="1"/><rect x="7" y="24" width="13" height="1"/><rect x="8" y="25" width="11" height="1"/><rect x="8" y="26" width="8" height="1"/></g><g fill="#ca09ff"><rect x="26" y="3" width="2" height="1"/><rect x="26" y="4" width="2" height="1"/></g><g fill="#f10007"><rect x="6" y="5" width="1" height="1"/><rect x="22" y="5" width="1" height="1"/><rect x="7" y="6" width="1" height="1"/><rect x="21" y="6" width="1" height="1"/><rect x="5" y="8" width="2" height="1"/><rect x="11" y="8" width="1" height="1"/><rect x="20" y="8" width="1" height="1"/><rect x="22" y="8" width="2" height="1"/><rect x="11" y="9" width="6" height="1"/><rect x="20" y="9" width="2" height="1"/><rect x="7" y="10" width="1" height="1"/><rect x="11" y="10" width="6" height="1"/><rect x="20" y="10" width="3" height="1"/><rect x="6" y="11" width="18" height="1"/><rect x="6" y="12" width="18" height="1"/><rect x="6" y="13" width="19" height="1"/><rect x="15" y="14" width="10" height="1"/><rect x="5" y="15" width="1" height="1"/><rect x="20" y="15" width="5" height="1"/><rect x="5" y="16" width="1" height="1"/><rect x="21" y="16" width="4" height="1"/><rect x="5" y="17" width="1" height="1"/><rect x="22" y="17" width="4" height="1"/><rect x="4" y="18" width="2" height="1"/><rect x="23" y="18" width="2" height="1"/><rect x="26" y="18" width="4" height="1"/><rect x="4" y="19" width="2" height="1"/><rect x="23" y="19" width="5" height="1"/><rect x="29" y="19" width="1" height="1"/><rect x="4" y="20" width="2" height="1"/><rect x="23" y="20" width="4" height="1"/><rect x="28" y="20" width="2" height="1"/><rect x="4" y="21" width="2" height="1"/><rect x="23" y="21" width="3" height="1"/><rect x="27" y="21" width="3" height="1"/><rect x="3" y="22" width="2" height="1"/><rect x="23" y="22" width="3" height="1"/><rect x="27" y="22" width="2" height="1"/><rect x="3" y="23" width="1" height="1"/><rect x="5" y="23" width="1" height="1"/><rect x="22" y="23" width="3" height="1"/><rect x="26" y="23" width="2" height="1"/><rect x="3" y="24" width="1" height="1"/><rect x="5" y="24" width="1" height="1"/><rect x="22" y="24" width="5" height="1"/><rect x="28" y="24" width="1" height="1"/><rect x="2" y="25" width="1" height="1"/><rect x="4" y="25" width="1" height="1"/><rect x="6" y="25" width="1" height="1"/><rect x="21" y="25" width="1" height="1"/><rect x="23" y="25" width="3" height="1"/><rect x="27" y="25" width="1" height="1"/><rect x="29" y="25" width="1" height="1"/><rect x="1" y="26" width="2" height="1"/><rect x="4" y="26" width="1" height="1"/><rect x="6" y="26" width="1" height="1"/><rect x="20" y="26" width="4" height="1"/><rect x="25" y="26" width="2" height="1"/><rect x="28" y="26" width="1" height="1"/><rect x="30" y="26" width="1" height="1"/></g><g fill="#ff181f"><rect x="8" y="7" width="4" height="1"/><rect x="17" y="7" width="4" height="1"/><rect x="7" y="8" width="1" height="1"/><rect x="12" y="8" width="5" height="1"/><rect x="21" y="8" width="1" height="1"/><rect x="7" y="9" width="1" height="1"/><rect x="22" y="9" width="1" height="1"/><rect x="6" y="10" width="1" height="1"/><rect x="23" y="10" width="1" height="1"/><rect x="5" y="11" width="1" height="1"/><rect x="24" y="11" width="1" height="1"/><rect x="5" y="12" width="1" height="1"/><rect x="24" y="12" width="1" height="1"/><rect x="5" y="13" width="1" height="1"/><rect x="25" y="13" width="1" height="1"/><rect x="5" y="14" width="1" height="1"/><rect x="25" y="14" width="1" height="1"/><rect x="4" y="15" width="1" height="1"/><rect x="25" y="15" width="1" height="1"/><rect x="4" y="16" width="1" height="1"/><rect x="25" y="16" width="1" height="1"/><rect x="4" y="17" width="1" height="1"/><rect x="26" y="17" width="4" height="1"/><rect x="3" y="18" width="1" height="1"/><rect x="25" y="18" width="1" height="1"/><rect x="30" y="18" width="1" height="1"/><rect x="3" y="19" width="1" height="1"/><rect x="28" y="19" width="1" height="1"/><rect x="30" y="19" width="1" height="1"/><rect x="3" y="20" width="1" height="1"/><rect x="27" y="20" width="1" height="1"/><rect x="30" y="20" width="1" height="1"/><rect x="3" y="21" width="1" height="1"/><rect x="26" y="21" width="1" height="1"/><rect x="30" y="21" width="1" height="1"/><rect x="2" y="22" width="1" height="1"/><rect x="5" y="22" width="1" height="1"/><rect x="26" y="22" width="1" height="1"/><rect x="29" y="22" width="1" height="1"/><rect x="2" y="23" width="1" height="1"/><rect x="4" y="23" width="1" height="1"/><rect x="6" y="23" width="1" height="1"/><rect x="25" y="23" width="1" height="1"/><rect x="28" y="23" width="1" height="1"/><rect x="2" y="24" width="1" height="1"/><rect x="4" y="24" width="1" height="1"/><rect x="6" y="24" width="1" height="1"/><rect x="21" y="24" width="1" height="1"/><rect x="27" y="24" width="1" height="1"/><rect x="1" y="25" width="1" height="1"/><rect x="3" y="25" width="1" height="1"/><rect x="5" y="25" width="1" height="1"/><rect x="7" y="25" width="1" height="1"/><rect x="20" y="25" width="1" height="1"/><rect x="22" y="25" width="1" height="1"/><rect x="26" y="25" width="1" height="1"/><rect x="28" y="25" width="1" height="1"/><rect x="3" y="26" width="1" height="1"/><rect x="5" y="26" width="1" height="1"/><rect x="7" y="26" width="1" height="1"/><rect x="18" y="26" width="2" height="1"/><rect x="24" y="26" width="1" height="1"/><rect x="27" y="26" width="1" height="1"/><rect x="29" y="26" width="1" height="1"/></g><g fill="#ff3446"><rect x="8" y="8" width="3" height="1"/><rect x="17" y="8" width="3" height="1"/><rect x="6" y="14" width="9" height="1"/><rect x="15" y="15" width="5" height="1"/><rect x="20" y="16" width="1" height="1"/><rect x="21" y="17" width="1" height="1"/></g><g fill="#183d2a"><rect x="8" y="9" width="1" height="1"/><rect x="17" y="9" width="1" height="1"/></g><g fill="#ffffff"><rect x="9" y="9" width="2" height="1"/><rect x="18" y="9" width="2" height="1"/></g><g fill="#da0006"><rect x="8" y="10" width="3" height="1"/><rect x="17" y="10" width="3" height="1"/></g><g fill="#ff7fd4"><rect x="22" y="18" width="1" height="1"/><rect x="22" y="19" width="1" height="1"/><rect x="22" y="20" width="1" height="1"/><rect x="22" y="21" width="1" height="1"/><rect x="22" y="22" width="1" height="1"/><rect x="21" y="23" width="1" height="1"/><rect x="20" y="24" width="1" height="1"/><rect x="19" y="25" width="1" height="1"/><rect x="16" y="26" width="2" height="1"/></g><g fill="#40ff6e"><rect x="0" y="27" width="1" height="1"/><rect x="31" y="27" width="1" height="1"/><rect x="0" y="28" width="2" height="1"/><rect x="4" y="28" width="2" height="1"/><rect x="29" y="28" width="3" height="1"/><rect x="0" y="29" width="5" height="1"/><rect x="24" y="29" width="8" height="1"/><rect x="0" y="30" width="7" height="1"/><rect x="16" y="30" width="16" height="1"/><rect x="0" y="31" width="32" height="1"/></g><g fill="#e2dc1c"><rect x="1" y="27" width="1" height="1"/><rect x="30" y="27" width="1" height="1"/><rect x="2" y="28" width="2" height="1"/><rect x="24" y="28" width="5" height="1"/><rect x="5" y="29" width="2" height="1"/><rect x="16" y="29" width="8" height="1"/><rect x="7" y="30" width="9" height="1"/></g><g fill="#beb90f"><rect x="2" y="27" width="3" height="1"/><rect x="6" y="28" width="3" height="1"/><rect x="11" y="28" width="4" height="1"/><rect x="16" y="28" width="7" height="1"/><rect x="9" y="29" width="6" height="1"/></g><g fill="#9b970b"><rect x="5" y="27" width="1" height="1"/><rect x="7" y="27" width="4" height="1"/><rect x="12" y="27" width="3" height="1"/><rect x="16" y="27" width="6" height="1"/><rect x="23" y="27" width="6" height="1"/><rect x="9" y="28" width="2" height="1"/><rect x="15" y="28" width="1" height="1"/><rect x="23" y="28" width="1" height="1"/><rect x="7" y="29" width="2" height="1"/><rect x="15" y="29" width="1" height="1"/></g><g fill="#89860a"><rect x="6" y="27" width="1" height="1"/><rect x="11" y="27" width="1" height="1"/><rect x="15" y="27" width="1" height="1"/><rect x="22" y="27" width="1" height="1"/><rect x="29" y="27" width="1" height="1"/></g></g><g transform="translate(0.35,-0.55)"><g fill="#83d93d"><rect x="0" y="0" width="32" height="1"/><rect x="0" y="1" width="32" height="1"/><rect x="0" y="2" width="26" height="1"/><rect x="28" y="2" width="4" height="1"/><rect x="0" y="3" width="25" height="1"/><rect x="29" y="3" width="3" height="1"/><rect x="0" y="4" width="25" height="1"/><rect x="29" y="4" width="3" height="1"/><rect x="0" y="5" width="6" height="1"/><rect x="7" y="5" width="15" height="1"/><rect x="23" y="5" width="3" height="1"/><rect x="28" y="5" width="4" height="1"/><rect x="0" y="6" width="7" height="1"/><rect x="8" y="6" width="13" height="1"/><rect x="22" y="6" width="10" height="1"/><rect x="0" y="7" width="8" height="1"/><rect x="12" y="7" width="5" height="1"/><rect x="21" y="7" width="11" height="1"/><rect x="0" y="8" width="5" height="1"/><rect x="24" y="8" width="8" height="1"/><rect x="0" y="9" width="7" height="1"/><rect x="23" y="9" width="9" height="1"/><rect x="0" y="10" width="6" height="1"/><rect x="24" y="10" width="8" height="1"/><rect x="0" y="11" width="5" height="1"/><rect x="25" y="11" width="7" height="1"/><rect x="0" y="12" width="5" height="1"/><rect x="25" y="12" width="7" height="1"/><rect x="0" y="13" width="5" height="1"/><rect x="26" y="13" width="6" height="1"/><rect x="0" y="14" width="5" height="1"/><rect x="26" y="14" width="6" height="1"/><rect x="0" y="15" width="4" height="1"/><rect x="26" y="15" width="6" height="1"/><rect x="0" y="16" width="4" height="1"/><rect x="26" y="16" width="6" height="1"/><rect x="0" y="17" width="4" height="1"/><rect x="30" y="17" width="2" height="1"/><rect x="0" y="18" width="3" height="1"/><rect x="31" y="18" width="1" height="1"/><rect x="0" y="19" width="3" height="1"/><rect x="31" y="19" width="1" height="1"/><rect x="0" y="20" width="3" height="1"/><rect x="31" y="20" width="1" height="1"/><rect x="0" y="21" width="3" height="1"/><rect x="31" y="21" width="1" height="1"/><rect x="0" y="22" width="2" height="1"/><rect x="30" y="22" width="2" height="1"/><rect x="0" y="23" width="2" height="1"/><rect x="29" y="23" width="3" height="1"/><rect x="0" y="24" width="2" height="1"/><rect x="29" y="24" width="3" height="1"/><rect x="0" y="25" width="1" height="1"/><rect x="30" y="25" width="2" height="1"/><rect x="0" y="26" width="1" height="1"/><rect x="31" y="26" width="1" height="1"/></g><g fill="#d92da0"><rect x="26" y="2" width="2" height="1"/><rect x="25" y="3" width="1" height="1"/><rect x="28" y="3" width="1" height="1"/><rect x="25" y="4" width="1" height="1"/><rect x="28" y="4" width="1" height="1"/><rect x="26" y="5" width="2" height="1"/><rect x="6" y="15" width="9" height="1"/><rect x="6" y="16" width="14" height="1"/><rect x="6" y="17" width="15" height="1"/><rect x="6" y="18" width="16" height="1"/><rect x="6" y="19" width="16" height="1"/><rect x="6" y="20" width="16" height="1"/><rect x="6" y="21" width="16" height="1"/><rect x="6" y="22" width="16" height="1"/><rect x="7" y="23" width="14" height="1"/><rect x="7" y="24" width="13" height="1"/><rect x="8" y="25" width="11" height="1"/><rect x="8" y="26" width="8" height="1"/></g><g fill="#ac08d9"><rect x="26" y="3" width="2" height="1"/><rect x="26" y="4" width="2" height="1"/></g><g fill="#cd0006"><rect x="6" y="5" width="1" height="1"/><rect x="22" y="5" width="1" height="1"/><rect x="7" y="6" width="1" height="1"/><rect x="21" y="6" width="1" height="1"/><rect x="5" y="8" width="2" height="1"/><rect x="11" y="8" width="1" height="1"/><rect x="20" y="8" width="1" height="1"/><rect x="22" y="8" width="2" height="1"/><rect x="11" y="9" width="6" height="1"/><rect x="20" y="9" width="2" height="1"/><rect x="7" y="10" width="1" height="1"/><rect x="11" y="10" width="6" height="1"/><rect x="20" y="10" width="3" height="1"/><rect x="6" y="11" width="18" height="1"/><rect x="6" y="12" width="18" height="1"/><rect x="6" y="13" width="19" height="1"/><rect x="15" y="14" width="10" height="1"/><rect x="5" y="15" width="1" height="1"/><rect x="20" y="15" width="5" height="1"/><rect x="5" y="16" width="1" height="1"/><rect x="21" y="16" width="4" height="1"/><rect x="5" y="17" width="1" height="1"/><rect x="22" y="17" width="4" height="1"/><rect x="4" y="18" width="2" height="1"/><rect x="23" y="18" width="2" height="1"/><rect x="26" y="18" width="4" height="1"/><rect x="4" y="19" width="2" height="1"/><rect x="23" y="19" width="5" height="1"/><rect x="29" y="19" width="1" height="1"/><rect x="4" y="20" width="2" height="1"/><rect x="23" y="20" width="4" height="1"/><rect x="28" y="20" width="2" height="1"/><rect x="4" y="21" width="2" height="1"/><rect x="23" y="21" width="3" height="1"/><rect x="27" y="21" width="3" height="1"/><rect x="3" y="22" width="2" height="1"/><rect x="23" y="22" width="3" height="1"/><rect x="27" y="22" width="2" height="1"/><rect x="3" y="23" width="1" height="1"/><rect x="5" y="23" width="1" height="1"/><rect x="22" y="23" width="3" height="1"/><rect x="26" y="23" width="2" height="1"/><rect x="3" y="24" width="1" height="1"/><rect x="5" y="24" width="1" height="1"/><rect x="22" y="24" width="5" height="1"/><rect x="28" y="24" width="1" height="1"/><rect x="2" y="25" width="1" height="1"/><rect x="4" y="25" width="1" height="1"/><rect x="6" y="25" width="1" height="1"/><rect x="21" y="25" width="1" height="1"/><rect x="23" y="25" width="3" height="1"/><rect x="27" y="25" width="1" height="1"/><rect x="29" y="25" width="1" height="1"/><rect x="1" y="26" width="2" height="1"/><rect x="4" y="26" width="1" height="1"/><rect x="6" y="26" width="1" height="1"/><rect x="20" y="26" width="4" height="1"/><rect x="25" y="26" width="2" height="1"/><rect x="28" y="26" width="1" height="1"/><rect x="30" y="26" width="1" height="1"/></g><g fill="#d9141a"><rect x="8" y="7" width="4" height="1"/><rect x="17" y="7" width="4" height="1"/><rect x="7" y="8" width="1" height="1"/><rect x="12" y="8" width="5" height="1"/><rect x="21" y="8" width="1" height="1"/><rect x="7" y="9" width="1" height="1"/><rect x="22" y="9" width="1" height="1"/><rect x="6" y="10" width="1" height="1"/><rect x="23" y="10" width="1" height="1"/><rect x="5" y="11" width="1" height="1"/><rect x="24" y="11" width="1" height="1"/><rect x="5" y="12" width="1" height="1"/><rect x="24" y="12" width="1" height="1"/><rect x="5" y="13" width="1" height="1"/><rect x="25" y="13" width="1" height="1"/><rect x="5" y="14" width="1" height="1"/><rect x="25" y="14" width="1" height="1"/><rect x="4" y="15" width="1" height="1"/><rect x="25" y="15" width="1" height="1"/><rect x="4" y="16" width="1" height="1"/><rect x="25" y="16" width="1" height="1"/><rect x="4" y="17" width="1" height="1"/><rect x="26" y="17" width="4" height="1"/><rect x="3" y="18" width="1" height="1"/><rect x="25" y="18" width="1" height="1"/><rect x="30" y="18" width="1" height="1"/><rect x="3" y="19" width="1" height="1"/><rect x="28" y="19" width="1" height="1"/><rect x="30" y="19" width="1" height="1"/><rect x="3" y="20" width="1" height="1"/><rect x="27" y="20" width="1" height="1"/><rect x="30" y="20" width="1" height="1"/><rect x="3" y="21" width="1" height="1"/><rect x="26" y="21" width="1" height="1"/><rect x="30" y="21" width="1" height="1"/><rect x="2" y="22" width="1" height="1"/><rect x="5" y="22" width="1" height="1"/><rect x="26" y="22" width="1" height="1"/><rect x="29" y="22" width="1" height="1"/><rect x="2" y="23" width="1" height="1"/><rect x="4" y="23" width="1" height="1"/><rect x="6" y="23" width="1" height="1"/><rect x="25" y="23" width="1" height="1"/><rect x="28" y="23" width="1" height="1"/><rect x="2" y="24" width="1" height="1"/><rect x="4" y="24" width="1" height="1"/><rect x="6" y="24" width="1" height="1"/><rect x="21" y="24" width="1" height="1"/><rect x="27" y="24" width="1" height="1"/><rect x="1" y="25" width="1" height="1"/><rect x="3" y="25" width="1" height="1"/><rect x="5" y="25" width="1" height="1"/><rect x="7" y="25" width="1" height="1"/><rect x="20" y="25" width="1" height="1"/><rect x="22" y="25" width="1" height="1"/><rect x="26" y="25" width="1" height="1"/><rect x="28" y="25" width="1" height="1"/><rect x="3" y="26" width="1" height="1"/><rect x="5" y="26" width="1" height="1"/><rect x="7" y="26" width="1" height="1"/><rect x="18" y="26" width="2" height="1"/><rect x="24" y="26" width="1" height="1"/><rect x="27" y="26" width="1" height="1"/><rect x="29" y="26" width="1" height="1"/></g><g fill="#d92c3c"><rect x="8" y="8" width="3" height="1"/><rect x="17" y="8" width="3" height="1"/><rect x="6" y="14" width="9" height="1"/><rect x="15" y="15" width="5" height="1"/><rect x="20" y="16" width="1" height="1"/><rect x="21" y="17" width="1" height="1"/></g><g fill="#143424"><rect x="8" y="9" width="1" height="1"/><rect x="17" y="9" width="1" height="1"/></g><g fill="#d9d9d9"><rect x="9" y="9" width="2" height="1"/><rect x="18" y="9" width="2" height="1"/></g><g fill="#b90005"><rect x="8" y="10" width="3" height="1"/><rect x="17" y="10" width="3" height="1"/></g><g fill="#d96cb4"><rect x="22" y="18" width="1" height="1"/><rect x="22" y="19" width="1" height="1"/><rect x="22" y="20" width="1" height="1"/><rect x="22" y="21" width="1" height="1"/><rect x="22" y="22" width="1" height="1"/><rect x="21" y="23" width="1" height="1"/><rect x="20" y="24" width="1" height="1"/><rect x="19" y="25" width="1" height="1"/><rect x="16" y="26" width="2" height="1"/></g><g fill="#36d95e"><rect x="0" y="27" width="1" height="1"/><rect x="31" y="27" width="1" height="1"/><rect x="0" y="28" width="2" height="1"/><rect x="4" y="28" width="2" height="1"/><rect x="29" y="28" width="3" height="1"/><rect x="0" y="29" width="5" height="1"/><rect x="24" y="29" width="8" height="1"/><rect x="0" y="30" width="7" height="1"/><rect x="16" y="30" width="16" height="1"/><rect x="0" y="31" width="32" height="1"/></g><g fill="#c0bb18"><rect x="1" y="27" width="1" height="1"/><rect x="30" y="27" width="1" height="1"/><rect x="2" y="28" width="2" height="1"/><rect x="24" y="28" width="5" height="1"/><rect x="5" y="29" width="2" height="1"/><rect x="16" y="29" width="8" height="1"/><rect x="7" y="30" width="9" height="1"/></g><g fill="#a29d0d"><rect x="2" y="27" width="3" height="1"/><rect x="6" y="28" width="3" height="1"/><rect x="11" y="28" width="4" height="1"/><rect x="16" y="28" width="7" height="1"/><rect x="9" y="29" width="6" height="1"/></g><g fill="#848009"><rect x="5" y="27" width="1" height="1"/><rect x="7" y="27" width="4" height="1"/><rect x="12" y="27" width="3" height="1"/><rect x="16" y="27" width="6" height="1"/><rect x="23" y="27" width="6" height="1"/><rect x="9" y="28" width="2" height="1"/><rect x="15" y="28" width="1" height="1"/><rect x="23" y="28" width="1" height="1"/><rect x="7" y="29" width="2" height="1"/><rect x="15" y="29" width="1" height="1"/></g><g fill="#747208"><rect x="6" y="27" width="1" height="1"/><rect x="11" y="27" width="1" height="1"/><rect x="15" y="27" width="1" height="1"/><rect x="22" y="27" width="1" height="1"/><rect x="29" y="27" width="1" height="1"/></g></g><g transform="translate(0.7,-1.1)"><g fill="#6cb232"><rect x="0" y="0" width="32" height="1"/><rect x="0" y="1" width="32" height="1"/><rect x="0" y="2" width="26" height="1"/><rect x="28" y="2" width="4" height="1"/><rect x="0" y="3" width="25" height="1"/><rect x="29" y="3" width="3" height="1"/><rect x="0" y="4" width="25" height="1"/><rect x="29" y="4" width="3" height="1"/><rect x="0" y="5" width="6" height="1"/><rect x="7" y="5" width="15" height="1"/><rect x="23" y="5" width="3" height="1"/><rect x="28" y="5" width="4" height="1"/><rect x="0" y="6" width="7" height="1"/><rect x="8" y="6" width="13" height="1"/><rect x="22" y="6" width="10" height="1"/><rect x="0" y="7" width="8" height="1"/><rect x="12" y="7" width="5" height="1"/><rect x="21" y="7" width="11" height="1"/><rect x="0" y="8" width="5" height="1"/><rect x="24" y="8" width="8" height="1"/><rect x="0" y="9" width="7" height="1"/><rect x="23" y="9" width="9" height="1"/><rect x="0" y="10" width="6" height="1"/><rect x="24" y="10" width="8" height="1"/><rect x="0" y="11" width="5" height="1"/><rect x="25" y="11" width="7" height="1"/><rect x="0" y="12" width="5" height="1"/><rect x="25" y="12" width="7" height="1"/><rect x="0" y="13" width="5" height="1"/><rect x="26" y="13" width="6" height="1"/><rect x="0" y="14" width="5" height="1"/><rect x="26" y="14" width="6" height="1"/><rect x="0" y="15" width="4" height="1"/><rect x="26" y="15" width="6" height="1"/><rect x="0" y="16" width="4" height="1"/><rect x="26" y="16" width="6" height="1"/><rect x="0" y="17" width="4" height="1"/><rect x="30" y="17" width="2" height="1"/><rect x="0" y="18" width="3" height="1"/><rect x="31" y="18" width="1" height="1"/><rect x="0" y="19" width="3" height="1"/><rect x="31" y="19" width="1" height="1"/><rect x="0" y="20" width="3" height="1"/><rect x="31" y="20" width="1" height="1"/><rect x="0" y="21" width="3" height="1"/><rect x="31" y="21" width="1" height="1"/><rect x="0" y="22" width="2" height="1"/><rect x="30" y="22" width="2" height="1"/><rect x="0" y="23" width="2" height="1"/><rect x="29" y="23" width="3" height="1"/><rect x="0" y="24" width="2" height="1"/><rect x="29" y="24" width="3" height="1"/><rect x="0" y="25" width="1" height="1"/><rect x="30" y="25" width="2" height="1"/><rect x="0" y="26" width="1" height="1"/><rect x="31" y="26" width="1" height="1"/></g><g fill="#b22584"><rect x="26" y="2" width="2" height="1"/><rect x="25" y="3" width="1" height="1"/><rect x="28" y="3" width="1" height="1"/><rect x="25" y="4" width="1" height="1"/><rect x="28" y="4" width="1" height="1"/><rect x="26" y="5" width="2" height="1"/><rect x="6" y="15" width="9" height="1"/><rect x="6" y="16" width="14" height="1"/><rect x="6" y="17" width="15" height="1"/><rect x="6" y="18" width="16" height="1"/><rect x="6" y="19" width="16" height="1"/><rect x="6" y="20" width="16" height="1"/><rect x="6" y="21" width="16" height="1"/><rect x="6" y="22" width="16" height="1"/><rect x="7" y="23" width="14" height="1"/><rect x="7" y="24" width="13" height="1"/><rect x="8" y="25" width="11" height="1"/><rect x="8" y="26" width="8" height="1"/></g><g fill="#8d06b2"><rect x="26" y="3" width="2" height="1"/><rect x="26" y="4" width="2" height="1"/></g><g fill="#a90005"><rect x="6" y="5" width="1" height="1"/><rect x="22" y="5" width="1" height="1"/><rect x="7" y="6" width="1" height="1"/><rect x="21" y="6" width="1" height="1"/><rect x="5" y="8" width="2" height="1"/><rect x="11" y="8" width="1" height="1"/><rect x="20" y="8" width="1" height="1"/><rect x="22" y="8" width="2" height="1"/><rect x="11" y="9" width="6" height="1"/><rect x="20" y="9" width="2" height="1"/><rect x="7" y="10" width="1" height="1"/><rect x="11" y="10" width="6" height="1"/><rect x="20" y="10" width="3" height="1"/><rect x="6" y="11" width="18" height="1"/><rect x="6" y="12" width="18" height="1"/><rect x="6" y="13" width="19" height="1"/><rect x="15" y="14" width="10" height="1"/><rect x="5" y="15" width="1" height="1"/><rect x="20" y="15" width="5" height="1"/><rect x="5" y="16" width="1" height="1"/><rect x="21" y="16" width="4" height="1"/><rect x="5" y="17" width="1" height="1"/><rect x="22" y="17" width="4" height="1"/><rect x="4" y="18" width="2" height="1"/><rect x="23" y="18" width="2" height="1"/><rect x="26" y="18" width="4" height="1"/><rect x="4" y="19" width="2" height="1"/><rect x="23" y="19" width="5" height="1"/><rect x="29" y="19" width="1" height="1"/><rect x="4" y="20" width="2" height="1"/><rect x="23" y="20" width="4" height="1"/><rect x="28" y="20" width="2" height="1"/><rect x="4" y="21" width="2" height="1"/><rect x="23" y="21" width="3" height="1"/><rect x="27" y="21" width="3" height="1"/><rect x="3" y="22" width="2" height="1"/><rect x="23" y="22" width="3" height="1"/><rect x="27" y="22" width="2" height="1"/><rect x="3" y="23" width="1" height="1"/><rect x="5" y="23" width="1" height="1"/><rect x="22" y="23" width="3" height="1"/><rect x="26" y="23" width="2" height="1"/><rect x="3" y="24" width="1" height="1"/><rect x="5" y="24" width="1" height="1"/><rect x="22" y="24" width="5" height="1"/><rect x="28" y="24" width="1" height="1"/><rect x="2" y="25" width="1" height="1"/><rect x="4" y="25" width="1" height="1"/><rect x="6" y="25" width="1" height="1"/><rect x="21" y="25" width="1" height="1"/><rect x="23" y="25" width="3" height="1"/><rect x="27" y="25" width="1" height="1"/><rect x="29" y="25" width="1" height="1"/><rect x="1" y="26" width="2" height="1"/><rect x="4" y="26" width="1" height="1"/><rect x="6" y="26" width="1" height="1"/><rect x="20" y="26" width="4" height="1"/><rect x="25" y="26" width="2" height="1"/><rect x="28" y="26" width="1" height="1"/><rect x="30" y="26" width="1" height="1"/></g><g fill="#b21116"><rect x="8" y="7" width="4" height="1"/><rect x="17" y="7" width="4" height="1"/><rect x="7" y="8" width="1" height="1"/><rect x="12" y="8" width="5" height="1"/><rect x="21" y="8" width="1" height="1"/><rect x="7" y="9" width="1" height="1"/><rect x="22" y="9" width="1" height="1"/><rect x="6" y="10" width="1" height="1"/><rect x="23" y="10" width="1" height="1"/><rect x="5" y="11" width="1" height="1"/><rect x="24" y="11" width="1" height="1"/><rect x="5" y="12" width="1" height="1"/><rect x="24" y="12" width="1" height="1"/><rect x="5" y="13" width="1" height="1"/><rect x="25" y="13" width="1" height="1"/><rect x="5" y="14" width="1" height="1"/><rect x="25" y="14" width="1" height="1"/><rect x="4" y="15" width="1" height="1"/><rect x="25" y="15" width="1" height="1"/><rect x="4" y="16" width="1" height="1"/><rect x="25" y="16" width="1" height="1"/><rect x="4" y="17" width="1" height="1"/><rect x="26" y="17" width="4" height="1"/><rect x="3" y="18" width="1" height="1"/><rect x="25" y="18" width="1" height="1"/><rect x="30" y="18" width="1" height="1"/><rect x="3" y="19" width="1" height="1"/><rect x="28" y="19" width="1" height="1"/><rect x="30" y="19" width="1" height="1"/><rect x="3" y="20" width="1" height="1"/><rect x="27" y="20" width="1" height="1"/><rect x="30" y="20" width="1" height="1"/><rect x="3" y="21" width="1" height="1"/><rect x="26" y="21" width="1" height="1"/><rect x="30" y="21" width="1" height="1"/><rect x="2" y="22" width="1" height="1"/><rect x="5" y="22" width="1" height="1"/><rect x="26" y="22" width="1" height="1"/><rect x="29" y="22" width="1" height="1"/><rect x="2" y="23" width="1" height="1"/><rect x="4" y="23" width="1" height="1"/><rect x="6" y="23" width="1" height="1"/><rect x="25" y="23" width="1" height="1"/><rect x="28" y="23" width="1" height="1"/><rect x="2" y="24" width="1" height="1"/><rect x="4" y="24" width="1" height="1"/><rect x="6" y="24" width="1" height="1"/><rect x="21" y="24" width="1" height="1"/><rect x="27" y="24" width="1" height="1"/><rect x="1" y="25" width="1" height="1"/><rect x="3" y="25" width="1" height="1"/><rect x="5" y="25" width="1" height="1"/><rect x="7" y="25" width="1" height="1"/><rect x="20" y="25" width="1" height="1"/><rect x="22" y="25" width="1" height="1"/><rect x="26" y="25" width="1" height="1"/><rect x="28" y="25" width="1" height="1"/><rect x="3" y="26" width="1" height="1"/><rect x="5" y="26" width="1" height="1"/><rect x="7" y="26" width="1" height="1"/><rect x="18" y="26" width="2" height="1"/><rect x="24" y="26" width="1" height="1"/><rect x="27" y="26" width="1" height="1"/><rect x="29" y="26" width="1" height="1"/></g><g fill="#b22431"><rect x="8" y="8" width="3" height="1"/><rect x="17" y="8" width="3" height="1"/><rect x="6" y="14" width="9" height="1"/><rect x="15" y="15" width="5" height="1"/><rect x="20" y="16" width="1" height="1"/><rect x="21" y="17" width="1" height="1"/></g><g fill="#112b1d"><rect x="8" y="9" width="1" height="1"/><rect x="17" y="9" width="1" height="1"/></g><g fill="#b2b2b2"><rect x="9" y="9" width="2" height="1"/><rect x="18" y="9" width="2" height="1"/></g><g fill="#990004"><rect x="8" y="10" width="3" height="1"/><rect x="17" y="10" width="3" height="1"/></g><g fill="#b25994"><rect x="22" y="18" width="1" height="1"/><rect x="22" y="19" width="1" height="1"/><rect x="22" y="20" width="1" height="1"/><rect x="22" y="21" width="1" height="1"/><rect x="22" y="22" width="1" height="1"/><rect x="21" y="23" width="1" height="1"/><rect x="20" y="24" width="1" height="1"/><rect x="19" y="25" width="1" height="1"/><rect x="16" y="26" width="2" height="1"/></g><g fill="#2db24d"><rect x="0" y="27" width="1" height="1"/><rect x="31" y="27" width="1" height="1"/><rect x="0" y="28" width="2" height="1"/><rect x="4" y="28" width="2" height="1"/><rect x="29" y="28" width="3" height="1"/><rect x="0" y="29" width="5" height="1"/><rect x="24" y="29" width="8" height="1"/><rect x="0" y="30" width="7" height="1"/><rect x="16" y="30" width="16" height="1"/><rect x="0" y="31" width="32" height="1"/></g><g fill="#9e9a14"><rect x="1" y="27" width="1" height="1"/><rect x="30" y="27" width="1" height="1"/><rect x="2" y="28" width="2" height="1"/><rect x="24" y="28" width="5" height="1"/><rect x="5" y="29" width="2" height="1"/><rect x="16" y="29" width="8" height="1"/><rect x="7" y="30" width="9" height="1"/></g><g fill="#85820a"><rect x="2" y="27" width="3" height="1"/><rect x="6" y="28" width="3" height="1"/><rect x="11" y="28" width="4" height="1"/><rect x="16" y="28" width="7" height="1"/><rect x="9" y="29" width="6" height="1"/></g><g fill="#6c6a08"><rect x="5" y="27" width="1" height="1"/><rect x="7" y="27" width="4" height="1"/><rect x="12" y="27" width="3" height="1"/><rect x="16" y="27" width="6" height="1"/><rect x="23" y="27" width="6" height="1"/><rect x="9" y="28" width="2" height="1"/><rect x="15" y="28" width="1" height="1"/><rect x="23" y="28" width="1" height="1"/><rect x="7" y="29" width="2" height="1"/><rect x="15" y="29" width="1" height="1"/></g><g fill="#605e07"><rect x="6" y="27" width="1" height="1"/><rect x="11" y="27" width="1" height="1"/><rect x="15" y="27" width="1" height="1"/><rect x="22" y="27" width="1" height="1"/><rect x="29" y="27" width="1" height="1"/></g></g></svg>