<svg xmlns="http://www.w3.org/2000/svg" viewBox="0 0 32 32" preserveAspectRatio="xMidYMid meet"><style>*{shape-rendering:crispEdges}</style><g transform="translate(0.0,-0.0)"><g fill="#46f347"><rect x="0" y="0" width="32" height="1"/><rect x="0" y="1" width="32" height="1"/><rect x="0" y="2" width="26" height="1"/><rect x="28" y="2" width="4" height="1"/><rect x="0" y="3" width="25" height="1"/><rect x="29" y="3" width="3" height="1"/><rect x="0" y="4" width="25" height="1"/><rect x="29" y="4" width="3" height="1"/><rect x="0" y="5" width="6" height="1"/><rect x="7" y="5" width="15" height="1"/><rect x="23" y="5" width="3" height="1"/><rect x="28" y="5" width="4" height="1"/><rect x="0" y="6" width="7" height="1"/><rect x="8" y="6" width="13" height="1"/><rect x="22" y="6" width="10" height="1"/><rect x="0" y="7" width="8" height="1"/><rect x="12" y="7" width="5" height="1"/><rect x="21" y="7" width="11" height="1"/><rect x="0" y="8" width="5" height="1"/><rect x="24" y="8" width="8" height="1"/><rect x="0" y="9" width="7" height="1"/><rect x="23" y="9" width="9" height="1"/><rect x="0" y="10" width="6" height="1"/><rect x="24" y="10" width="8" height="1"/><rect x="0" y="11" width="5" height="1"/><rect x="25" y="11" width="7" height="1"/><rect x="0" y="12" width="5" height="1"/><rect x="25" y="12" width="7" height="1"/><rect x="0" y="13" width="5" height="1"/><rect x="26" y="13" width="6" height="1"/><rect x="0" y="14" width="5" height="1"/><rect x="26" y="14" width="6" height="1"/><rect x="0" y="15" width="4" height="1"/><rect x="26" y="15" width="6" height="1"/><rect x="0" y="16" width="4" height="1"/><rect x="26" y="16" width="6" height="1"/><rect x="0" y="17" width="4" height="1"/><rect x="30" y="17" width="2" height="1"/><rect x="0" y="18" width="3" height="1"/><rect x="31" y="18" width="1" height="1"/><rect x="0" y="19" width="3" height="1"/><rect x="31" y="19" width="1" height="1"/><rect x="0" y="20" width="3" height="1"/><rect x="31" y="20" width="1" height="1"/><rect x="0" y="21" width="3" height="1"/><rect x="31" y="21" width="1" height="1"/><rect x="0" y="22" width="2" height="1"/><rect x="30" y="22" width="2" height="1"/><rect x="0" y="23" width="2" height="1"/><rect x="29" y="23" width="3" height="1"/><rect x="0" y="24" width="2" height="1"/><rect x="29" y="24" width="3" height="1"/><rect x="0" y="25" width="1" height="1"/><rect x="30" y="25" width="2" height="1"/><rect x="0" y="26" width="1" height="1"/><rect x="31" y="26" width="1" height="1"/></g><g fill="#ff2957"><rect x="26" y="2" width="2" height="1"/><rect x="25" y="3" width="1" height="1"/><rect x="28" y="3" width="1" height="1"/><rect x="25" y="4" width="1" height="1"/><rect x="28" y="4" width="1" height="1"/><rect x="26" y="5" width="2" height="1"/><rect x="6" y="15" width="9" height="1"/><rect x="6" y="16" width="14" height="1"/><rect x="6" y="17" width="15" height="1"/><rect x="6" y="18" width="16" height="1"/><rect x="6" y="19" width="16" height="1"/><rect x="6" y="20" width="16" height="1"/><rect x="6" y="21" width="16" height="1"/><rect x="6" y="22" width="16" height="1"/><rect x="7" y="23" width="14" height="1"/><rect x="7" y="24" width="13" height="1"/><rect x="8" y="25" width="11" height="1"/><rect x="8" y="26" width="8" height="1"/></g><g fill="#f30abc"><rect x="26" y="3" width="2" height="1"/><rect x="26" y="4" width="2" height="1"/></g><g fill="#c9661e"><rect x="6" y="5" width="1" height="1"/><rect x="22" y="5" width="1" height="1"/><rect x="7" y="6" width="1" height="1"/><rect x="21" y="6" width="1" height="1"/><rect x="5" y="8" width="2" height="1"/><rect x="11" y="8" width="1" height="1"/><rect x="20" y="8" width="1" height="1"/><rect x="22" y="8" width="2" height="1"/><rect x="11" y="9" width="6" height="1"/><rect x="20" y="9" width="2" height="1"/><rect x="7" y="10" width="1" height="1"/><rect x="11" y="10" width="6" height="1"/><rect x="20" y="10" width="3" height="1"/><rect x="6" y="11" width="18" height="1"/><rect x="6" y="12" width="18" height="1"/><rect x="6" y="13" width="19" height="1"/><rect x="15" y="14" width="10" height="1"/><rect x="5" y="15" width="1" height="1"/><rect x="20" y="15" width="5" height="1"/><rect x="5" y="16" width="1" height="1"/><rect x="21" y="16" width="4" height="1"/><rect x="5" y="17" width="1" height="1"/><rect x="22" y="17" width="4" height="1"/><rect x="4" y="18" width="2" height="1"/><rect x="23" y="18" width="2" height="1"/><rect x="26" y="18" width="4" height="1"/><rect x="4" y="19" width="2" height="1"/><rect x="23" y="19" width="5" height="1"/><rect x="29" y="19" width="1" height="1"/><rect x="4" y="20" width="2" height="1"/><rect x="23" y="20" width="4" height="1"/><rect x="28" y="20" width="2" height="1"/><rect x="4" y="21" width="2" height="1"/><rect x="23" y="21" width="3" height="1"/><rect x="27" y="21" width="3" height="1"/><rect x="3" y="22" width="2" height="1"/><rect x="23" y="22" width="3" height="1"/><rect x="27" y="22" width="2" height="1"/><rect x="3" y="23" width="1" height="1"/><rect x="5" y="23" width="1" height="1"/><rect x="22" y="23" width="3" height="1"/><rect x="26" y="23" width="2" height="1"/><rect x="3" y="24" width="1" height="1"/><rect x="5" y="24" width="1" height="1"/><rect x="22" y="24" width="5" height="1"/><rect x="28" y="24" width="1" height="1"/><rect x="2" y="25" width="1" height="1"/><rect x="4" y="25" width="1" height="1"/><rect x="6" y="25" width="1" height="1"/><rect x="21" y="25" width="1" height="1"/><rect x="23" y="25" width="3" height="1"/><rect x="27" y="25" width="1" height="1"/><rect x="29" y="25" width="1" height="1"/><rect x="1" y="26" width="2" height="1"/><rect x="4" y="26" width="1" height="1"/><rect x="6" y="26" width="1" height="1"/><rect x="20" y="26" width="4" height="1"/><rect x="25" y="26" width="2" height="1"/><rect x="28" y="26" width="1" height="1"/><rect x="30" y="26" width="1" height="1"/></g><g fill="#ee761e"><rect x="8" y="7" width="4" height="1"/><rect x="17" y="7" width="4" height="1"/><rect x="7" y="8" width="1" height="1"/><rect x="12" y="8" width="5" height="1"/><rect x="21" y="8" width="1" height="1"/><rect x="7" y="9" width="1" height="1"/><rect x="22" y="9" width="1" height="1"/><rect x="6" y="10" width="1" height="1"/><rect x="23" y="10" width="1" height="1"/><rect x="5" y="11" width="1" height="1"/><rect x="24" y="11" width="1" height="1"/><rect x="5" y="12" width="1" height="1"/><rect x="24" y="12" width="1" height="1"/><rect x="5" y="13" width="1" height="1"/><rect x="25" y="13" width="1" height="1"/><rect x="5" y="14" width="1" height="1"/><rect x="25" y="14" width="1" height="1"/><rect x="4" y="15" width="1" height="1"/><rect x="25" y="15" width="1" height="1"/><rect x="4" y="16" width="1" height="1"/><rect x="25" y="16" width="1" height="1"/><rect x="4" y="17" width="1" height="1"/><rect x="26" y="17" width="4" height="1"/><rect x="3" y="18" width="1" height="1"/><rect x="25" y="18" width="1" height="1"/><rect x="30" y="18" width="1" height="1"/><rect x="3" y="19" width="1" height="1"/><rect x="28" y="19" width="1" height="1"/><rect x="30" y="19" width="1" height="1"/><rect x="3" y="20" width="1" height="1"/><rect x="27" y="20" width="1" height="1"/><rect x="30" y="20" width="1" height="1"/><rect x="3" y="21" width="1" height="1"/><rect x="26" y="21" width="1" height="1"/><rect x="30" y="21" width="1" height="1"/><rect x="2" y="22" width="1" height="1"/><rect x="5" y="22" width="1" height="1"/><rect x="26" y="22" width="1" height="1"/><rect x="29" y="22" width="1" height="1"/><rect x="2" y="23" width="1" height="1"/><rect x="4" y="23" width="1" height="1"/><rect x="6" y="23" width="1" height="1"/><rect x="25" y="23" width="1" height="1"/><rect x="28" y="23" width="1" height="1"/><rect x="2" y="24" width="1" height="1"/><rect x="4" y="24" width="1" height="1"/><rect x="6" y="24" width="1" height="1"/><rect x="21" y="24" width="1" height="1"/><rect x="27" y="24" width="1" height="1"/><rect x="1" y="25" width="1" height="1"/><rect x="3" y="25" width="1" height="1"/><rect x="5" y="25" width="1" height="1"/><rect x="7" y="25" width="1" height="1"/><rect x="20" y="25" width="1" height="1"/><rect x="22" y="25" width="1" height="1"/><rect x="26" y="25" width="1" height="1"/><rect x="28" y="25" width="1" height="1"/><rect x="3" y="26" width="1" height="1"/><rect x="5" y="26" width="1" height="1"/><rect x="7" y="26" width="1" height="1"/><rect x="18" y="26" width="2" height="1"/><rect x="24" y="26" width="1" height="1"/><rect x="27" y="26" width="1" height="1"/><rect x="29" y="26" width="1" height="1"/></g><g fill="#f67931"><rect x="8" y="8" width="3" height="1"/><rect x="17" y="8" width="3" height="1"/><rect x="6" y="14" width="9" height="1"/><rect x="15" y="15" width="5" height="1"/><rect x="20" y="16" width="1" height="1"/><rect x="21" y="17" width="1" height="1"/></g><g fill="#1d3533"><rect x="8" y="9" width="1" height="1"/><rect x="17" y="9" width="1" height="1"/></g><g fill="#f8f8f8"><rect x="9" y="9" width="2" height="1"/><rect x="18" y="9" width="2" height="1"/></g><g fill="#bc5c16"><rect x="8" y="10" width="3" height="1"/><rect x="17" y="10" width="3" height="1"/></g><g fill="#ff708f"><rect x="22" y="18" width="1" height="1"/><rect x="22" y="19" width="1" height="1"/><rect x="22" y="20" width="1" height="1"/><rect x="22" y="21" width="1" height="1"/><rect x="22" y="22" width="1" height="1"/><rect x="21" y="23" width="1" height="1"/><rect x="20" y="24" width="1" height="1"/><rect x="19" y="25" width="1" height="1"/><rect x="16" y="26" width="2" height="1"/></g><g fill="#43f0ba"><rect x="0" y="27" width="1" height="1"/><rect x="31" y="27" width="1" height="1"/><rect x="0" y="28" width="2" height="1"/><rect x="4" y="28" width="2" height="1"/><rect x="29" y="28" width="3" height="1"/><rect x="0" y="29" width="5" height="1"/><rect x="24" y="29" width="8" height="1"/><rect x="0" y="30" width="7" height="1"/><rect x="16" y="30" width="16" height="1"/><rect x="0" y="31" width="32" height="1"/></g><g fill="#84b93b"><rect x="1" y="27" width="1" height="1"/><rect x="30" y="27" width="1" height="1"/><rect x="2" y="28" width="2" height="1"/><rect x="24" y="28" width="5" height="1"/><rect x="5" y="29" width="2" height="1"/><rect x="16" y="29" width="8" height="1"/><rect x="7" y="30" width="9" height="1"/></g><g fill="#6b9a2b"><rect x="2" y="27" width="3" height="1"/><rect x="6" y="28" width="3" height="1"/><rect x="11" y="28" width="4" height="1"/><rect x="16" y="28" width="7" height="1"/><rect x="9" y="29" width="6" height="1"/></g><g fill="#577d22"><rect x="5" y="27" width="1" height="1"/><rect x="7" y="27" width="4" height="1"/><rect x="12" y="27" width="3" height="1"/><rect x="16" y="27" width="6" height="1"/><rect x="23" y="27" width="6" height="1"/><rect x="9" y="28" width="2" height="1"/><rect x="15" y="28" width="1" height="1"/><rect x="23" y="28" width="1" height="1"/><rect x="7" y="29" width="2" height="1"/><rect x="15" y="29" width="1" height="1"/></g><g fill="#4c6f1e"><rect x="6" y="27" width="1" height="1"/><rect x="11" y="27" width="1" height="1"/><rect x="15" y="27" width="1" height="1"/><rect x="22" y="27" width="1" height="1"/><rect x="29" y="27" width="1" height="1"/></g></g><g transform="translate(0.35,-0.55)"><g fill="#3ccf3c"><rect x="0" y="0" width="32" height="1"/><rect x="0" y="1" width="32" height="1"/><rect x="0" y="2" width="26" height="1"/><rect x="28" y="2" width="4" height="1"/><rect x="0" y="3" width="25" height="1"/><rect x="29" y="3" width="3" height="1"/><rect x="0" y="4" width="25" height="1"/><rect x="29" y="4" width="3" height="1"/><rect x="0" y="5" width="6" height="1"/><rect x="7" y="5" width="15" height="1"/><rect x="23" y="5" width="3" height="1"/><rect x="28" y="5" width="4" height="1"/><rect x="0" y="6" width="7" height="1"/><rect x="8" y="6" width="13" height="1"/><rect x="22" y="6" width="10" height="1"/><rect x="0" y="7" width="8" height="1"/><rect x="12" y="7" width="5" height="1"/><rect x="21" y="7" width="11" height="1"/><rect x="0" y="8" width="5" height="1"/><rect x="24" y="8" width="8" height="1"/><rect x="0" y="9" width="7" height="1"/><rect x="23" y="9" width="9" height="1"/><rect x="0" y="10" width="6" height="1"/><rect x="24" y="10" width="8" height="1"/><rect x="0" y="11" width="5" height="1"/><rect x="25" y="11" width="7" height="1"/><rect x="0" y="12" width="5" height="1"/><rect x="25" y="12" width="7" height="1"/><rect x="0" y="13" width="5" height="1"/><rect x="26" y="13" width="6" height="1"/><rect x="0" y="14" width="5" height="1"/><rect x="26" y="14" width="6" height="1"/><rect x="0" y="15" width="4" height="1"/><rect x="26" y="15" width="6" height="1"/><rect x="0" y="16" width="4" height="1"/><rect x="26" y="16" width="6" height="1"/><rect x="0" y="17" width="4" height="1"/><rect x="30" y="17" width="2" height="1"/><rect x="0" y="18" width="3" height="1"/><rect x="31" y="18" width="1" height="1"/><rect x="0" y="19" width="3" height="1"/><rect x="31" y="19" width="1" height="1"/><rect x="0" y="20" width="3" height="1"/><rect x="31" y="20" width="1" height="1"/><rect x="0" y="21" width="3" height="1"/><rect x="31" y="21" width="1" height="1"/><rect x="0" y="22" width="2" height="1"/><rect x="30" y="22" width="2" height="1"/><rect x="0" y="23" width="2" height="1"/><rect x="29" y="23" width="3" height="1"/><rect x="0" y="24" width="2" height="1"/><rect x="29" y="24" width="3" height="1"/><rect x="0" y="25" width="1" height="1"/><rect x="30" y="25" width="2" height="1"/><rect x="0" y="26" width="1" height="1"/><rect x="31" y="26" width="1" height="1"/></g><g fill="#d9234a"><rect x="26" y="2" width="2" height="1"/><rect x="25" y="3" width="1" height="1"/><rect x="28" y="3" width="1" height="1"/><rect x="25" y="4" width="1" height="1"/><rect x="28" y="4" width="1" height="1"/><rect x="26" y="5" width="2" height="1"/><rect x="6" y="15" width="9" height="1"/><rect x="6" y="16" width="14" height="1"/><rect x="6" y="17" width="15" height="1"/><rect x="6" y="18" width="16" height="1"/><rect x="6" y="19" width="16" height="1"/><rect x="6" y="20" width="16" height="1"/><rect x="6" y="21" width="16" height="1"/><rect x="6" y="22" width="16" height="1"/><rect x="7" y="23" width="14" height="1"/><rect x="7" y="24" width="13" height="1"/><rect x="8" y="25" width="11" height="1"/><rect x="8" y="26" width="8" height="1"/></g><g fill="#cf08a0"><rect x="26" y="3" width="2" height="1"/><rect x="26" y="4" width="2" height="1"/></g><g fill="#ab571a"><rect x="6" y="5" width="1" height="1"/><rect x="22" y="5" width="1" height="1"/><rect x="7" y="6" width="1" height="1"/><rect x="21" y="6" width="1" height="1"/><rect x="5" y="8" width="2" height="1"/><rect x="11" y="8" width="1" height="1"/><rect x="20" y="8" width="1" height="1"/><rect x="22" y="8" width="2" height="1"/><rect x="11" y="9" width="6" height="1"/><rect x="20" y="9" width="2" height="1"/><rect x="7" y="10" width="1" height="1"/><rect x="11" y="10" width="6" height="1"/><rect x="20" y="10" width="3" height="1"/><rect x="6" y="11" width="18" height="1"/><rect x="6" y="12" width="18" height="1"/><rect x="6" y="13" width="19" height="1"/><rect x="15" y="14" width="10" height="1"/><rect x="5" y="15" width="1" height="1"/><rect x="20" y="15" width="5" height="1"/><rect x="5" y="16" width="1" height="1"/><rect x="21" y="16" width="4" height="1"/><rect x="5" y="17" width="1" height="1"/><rect x="22" y="17" width="4" height="1"/><rect x="4" y="18" width="2" height="1"/><rect x="23" y="18" width="2" height="1"/><rect x="26" y="18" width="4" height="1"/><rect x="4" y="19" width="2" height="1"/><rect x="23" y="19" width="5" height="1"/><rect x="29" y="19" width="1" height="1"/><rect x="4" y="20" width="2" height="1"/><rect x="23" y="20" width="4" height="1"/><rect x="28" y="20" width="2" height="1"/><rect x="4" y="21" width="2" height="1"/><rect x="23" y="21" width="3" height="1"/><rect x="27" y="21" width="3" height="1"/><rect x="3" y="22" width="2" height="1"/><rect x="23" y="22" width="3" height="1"/><rect x="27" y="22" width="2" height="1"/><rect x="3" y="23" width="1" height="1"/><rect x="5" y="23" width="1" height="1"/><rect x="22" y="23" width="3" height="1"/><rect x="26" y="23" width="2" height="1"/><rect x="3" y="24" width="1" height="1"/><rect x="5" y="24" width="1" height="1"/><rect x="22" y="24" width="5" height="1"/><rect x="28" y="24" width="1" height="1"/><rect x="2" y="25" width="1" height="1"/><rect x="4" y="25" width="1" height="1"/><rect x="6" y="25" width="1" height="1"/><rect x="21" y="25" width="1" height="1"/><rect x="23" y="25" width="3" height="1"/><rect x="27" y="25" width="1" height="1"/><rect x="29" y="25" width="1" height="1"/><rect x="1" y="26" width="2" height="1"/><rect x="4" y="26" width="1" height="1"/><rect x="6" y="26" width="1" height="1"/><rect x="20" y="26" width="4" height="1"/><rect x="25" y="26" width="2" height="1"/><rect x="28" y="26" width="1" height="1"/><rect x="30" y="26" width="1" height="1"/></g><g fill="#ca641a"><rect x="8" y="7" width="4" height="1"/><rect x="17" y="7" width="4" height="1"/><rect x="7" y="8" width="1" height="1"/><rect x="12" y="8" width="5" height="1"/><rect x="21" y="8" width="1" height="1"/><rect x="7" y="9" width="1" height="1"/><rect x="22" y="9" width="1" height="1"/><rect x="6" y="10" width="1" height="1"/><rect x="23" y="10" width="1" height="1"/><rect x="5" y="11" width="1" height="1"/><rect x="24" y="11" width="1" height="1"/><rect x="5" y="12" width="1" height="1"/><rect x="24" y="12" width="1" height="1"/><rect x="5" y="13" width="1" height="1"/><rect x="25" y="13" width="1" height="1"/><rect x="5" y="14" width="1" height="1"/><rect x="25" y="14" width="1" height="1"/><rect x="4" y="15" width="1" height="1"/><rect x="25" y="15" width="1" height="1"/><rect x="4" y="16" width="1" height="1"/><rect x="25" y="16" width="1" height="1"/><rect x="4" y="17" width="1" height="1"/><rect x="26" y="17" width="4" height="1"/><rect x="3" y="18" width="1" height="1"/><rect x="25" y="18" width="1" height="1"/><rect x="30" y="18" width="1" height="1"/><rect x="3" y="19" width="1" height="1"/><rect x="28" y="19" width="1" height="1"/><rect x="30" y="19" width="1" height="1"/><rect x="3" y="20" width="1" height="1"/><rect x="27" y="20" width="1" height="1"/><rect x="30" y="20" width="1" height="1"/><rect x="3" y="21" width="1" height="1"/><rect x="26" y="21" width="1" height="1"/><rect x="30" y="21" width="1" height="1"/><rect x="2" y="22" width="1" height="1"/><rect x="5" y="22" width="1" height="1"/><rect x="26" y="22" width="1" height="1"/><rect x="29" y="22" width="1" height="1"/><rect x="2" y="23" width="1" height="1"/><rect x="4" y="23" width="1" height="1"/><rect x="6" y="23" width="1" height="1"/><rect x="25" y="23" width="1" height="1"/><rect x="28" y="23" width="1" height="1"/><rect x="2" y="24" width="1" height="1"/><rect x="4" y="24" width="1" height="1"/><rect x="6" y="24" width="1" height="1"/><rect x="21" y="24" width="1" height="1"/><rect x="27" y="24" width="1" height="1"/><rect x="1" y="25" width="1" height="1"/><rect x="3" y="25" width="1" height="1"/><rect x="5" y="25" width="1" height="1"/><rect x="7" y="25" width="1" height="1"/><rect x="20" y="25" width="1" height="1"/><rect x="22" y="25" width="1" height="1"/><rect x="26" y="25" width="1" height="1"/><rect x="28" y="25" width="1" height="1"/><rect x="3" y="26" width="1" height="1"/><rect x="5" y="26" width="1" height="1"/><rect x="7" y="26" width="1" height="1"/><rect x="18" y="26" width="2" height="1"/><rect x="24" y="26" width="1" height="1"/><rect x="27" y="26" width="1" height="1"/><rect x="29" y="26" width="1" height="1"/></g><g fill="#d1672a"><rect x="8" y="8" width="3" height="1"/><rect x="17" y="8" width="3" height="1"/><rect x="6" y="14" width="9" height="1"/><rect x="15" y="15" width="5" height="1"/><rect x="20" y="16" width="1" height="1"/><rect x="21" y="17" width="1" height="1"/></g><g fill="#192d2b"><rect x="8" y="9" width="1" height="1"/><rect x="17" y="9" width="1" height="1"/></g><g fill="#d3d3d3"><rect x="9" y="9" width="2" height="1"/><rect x="18" y="9" width="2" height="1"/></g><g fill="#a04e13"><rect x="8" y="10" width="3" height="1"/><rect x="17" y="10" width="3" height="1"/></g><g fill="#d95f7a"><rect x="22" y="18" width="1" height="1"/><rect x="22" y="19" width="1" height="1"/><rect x="22" y="20" width="1" height="1"/><rect x="22" y="21" width="1" height="1"/><rect x="22" y="22" width="1" height="1"/><rect x="21" y="23" width="1" height="1"/><rect x="20" y="24" width="1" height="1"/><rect x="19" y="25" width="1" height="1"/><rect x="16" y="26" width="2" height="1"/></g><g fill="#39cc9e"><rect x="0" y="27" width="1" height="1"/><rect x="31" y="27" width="1" height="1"/><rect x="0" y="28" width="2" height="1"/><rect x="4" y="28" width="2" height="1"/><rect x="29" y="28" width="3" height="1"/><rect x="0" y="29" width="5" height="1"/><rect x="24" y="29" width="8" height="1"/><rect x="0" y="30" width="7" height="1"/><rect x="16" y="30" width="16" height="1"/><rect x="0" y="31" width="32" height="1"/></g><g fill="#709d32"><rect x="1" y="27" width="1" height="1"/><rect x="30" y="27" width="1" height="1"/><rect x="2" y="28" width="2" height="1"/><rect x="24" y="28" width="5" height="1"/><rect x="5" y="29" width="2" height="1"/><rect x="16" y="29" width="8" height="1"/><rect x="7" y="30" width="9" height="1"/></g><g fill="#5b8325"><rect x="2" y="27" width="3" height="1"/><rect x="6" y="28" width="3" height="1"/><rect x="11" y="28" width="4" height="1"/><rect x="16" y="28" width="7" height="1"/><rect x="9" y="29" width="6" height="1"/></g><g fill="#4a6a1d"><rect x="5" y="27" width="1" height="1"/><rect x="7" y="27" width="4" height="1"/><rect x="12" y="27" width="3" height="1"/><rect x="16" y="27" width="6" height="1"/><rect x="23" y="27" width="6" height="1"/><rect x="9" y="28" width="2" height="1"/><rect x="15" y="28" width="1" height="1"/><rect x="23" y="28" width="1" height="1"/><rect x="7" y="29" width="2" height="1"/><rect x="15" y="29" width="1" height="1"/></g><g fill="#415e1a"><rect x="6" y="27" width="1" height="1"/><rect x="11" y="27" width="1" height="1"/><rect x="15" y="27" width="1" height="1"/><rect x="22" y="27" width="1" height="1"/><rect x="29" y="27" width="1" height="1"/></g></g><g transform="translate(0.7,-1.1)"><g fill="#31aa32"><rect x="0" y="0" width="32" height="1"/><rect x="0" y="1" width="32" height="1"/><rect x="0" y="2" width="26" height="1"/><rect x="28" y="2" width="4" height="1"/><rect x="0" y="3" width="25" height="1"/><rect x="29" y="3" width="3" height="1"/><rect x="0" y="4" width="25" height="1"/><rect x="29" y="4" width="3" height="1"/><rect x="0" y="5" width="6" height="1"/><rect x="7" y="5" width="15" height="1"/><rect x="23" y="5" width="3" height="1"/><rect x="28" y="5" width="4" height="1"/><rect x="0" y="6" width="7" height="1"/><rect x="8" y="6" width="13" height="1"/><rect x="22" y="6" width="10" height="1"/><rect x="0" y="7" width="8" height="1"/><rect x="12" y="7" width="5" height="1"/><rect x="21" y="7" width="11" height="1"/><rect x="0" y="8" width="5" height="1"/><rect x="24" y="8" width="8" height="1"/><rect x="0" y="9" width="7" height="1"/><rect x="23" y="9" width="9" height="1"/><rect x="0" y="10" width="6" height="1"/><rect x="24" y="10" width="8" height="1"/><rect x="0" y="11" width="5" height="1"/><rect x="25" y="11" width="7" height="1"/><rect x="0" y="12" width="5" height="1"/><rect x="25" y="12" width="7" height="1"/><rect x="0" y="13" width="5" height="1"/><rect x="26" y="13" width="6" height="1"/><rect x="0" y="14" width="5" height="1"/><rect x="26" y="14" width="6" height="1"/><rect x="0" y="15" width="4" height="1"/><rect x="26" y="15" width="6" height="1"/><rect x="0" y="16" width="4" height="1"/><rect x="26" y="16" width="6" height="1"/><rect x="0" y="17" width="4" height="1"/><rect x="30" y="17" width="2" height="1"/><rect x="0" y="18" width="3" height="1"/><rect x="31" y="18" width="1" height="1"/><rect x="0" y="19" width="3" height="1"/><rect x="31" y="19" width="1" height="1"/><rect x="0" y="20" width="3" height="1"/><rect x="31" y="20" width="1" height="1"/><rect x="0" y="21" width="3" height="1"/><rect x="31" y="21" width="1" height="1"/><rect x="0" y="22" width="2" height="1"/><rect x="30" y="22" width="2" height="1"/><rect x="0" y="23" width="2" height="1"/><rect x="29" y="23" width="3" height="1"/><rect x="0" y="24" width="2" height="1"/><rect x="29" y="24" width="3" height="1"/><rect x="0" y="25" width="1" height="1"/><rect x="30" y="25" width="2" height="1"/><rect x="0" y="26" width="1" height="1"/><rect x="31" y="26" width="1" height="1"/></g><g fill="#b21d3d"><rect x="26" y="2" width="2" height="1"/><rect x="25" y="3" width="1" height="1"/><rect x="28" y="3" width="1" height="1"/><rect x="25" y="4" width="1" height="1"/><rect x="28" y="4" width="1" height="1"/><rect x="26" y="5" width="2" height="1"/><rect x="6" y="15" width="9" height="1"/><rect x="6" y="16" width="14" height="1"/><rect x="6" y="17" width="15" height="1"/><rect x="6" y="18" width="16" height="1"/><rect x="6" y="19" width="16" height="1"/><rect x="6" y="20" width="16" height="1"/><rect x="6" y="21" width="16" height="1"/><rect x="6" y="22" width="16" height="1"/><rect x="7" y="23" width="14" height="1"/><rect x="7" y="24" width="13" height="1"/><rect x="8" y="25" width="11" height="1"/><rect x="8" y="26" width="8" height="1"/></g><g fill="#aa0784"><rect x="26" y="3" width="2" height="1"/><rect x="26" y="4" width="2" height="1"/></g><g fill="#8d4715"><rect x="6" y="5" width="1" height="1"/><rect x="22" y="5" width="1" height="1"/><rect x="7" y="6" width="1" height="1"/><rect x="21" y="6" width="1" height="1"/><rect x="5" y="8" width="2" height="1"/><rect x="11" y="8" width="1" height="1"/><rect x="20" y="8" width="1" height="1"/><rect x="22" y="8" width="2" height="1"/><rect x="11" y="9" width="6" height="1"/><rect x="20" y="9" width="2" height="1"/><rect x="7" y="10" width="1" height="1"/><rect x="11" y="10" width="6" height="1"/><rect x="20" y="10" width="3" height="1"/><rect x="6" y="11" width="18" height="1"/><rect x="6" y="12" width="18" height="1"/><rect x="6" y="13" width="19" height="1"/><rect x="15" y="14" width="10" height="1"/><rect x="5" y="15" width="1" height="1"/><rect x="20" y="15" width="5" height="1"/><rect x="5" y="16" width="1" height="1"/><rect x="21" y="16" width="4" height="1"/><rect x="5" y="17" width="1" height="1"/><rect x="22" y="17" width="4" height="1"/><rect x="4" y="18" width="2" height="1"/><rect x="23" y="18" width="2" height="1"/><rect x="26" y="18" width="4" height="1"/><rect x="4" y="19" width="2" height="1"/><rect x="23" y="19" width="5" height="1"/><rect x="29" y="19" width="1" height="1"/><rect x="4" y="20" width="2" height="1"/><rect x="23" y="20" width="4" height="1"/><rect x="28" y="20" width="2" height="1"/><rect x="4" y="21" width="2" height="1"/><rect x="23" y="21" width="3" height="1"/><rect x="27" y="21" width="3" height="1"/><rect x="3" y="22" width="2" height="1"/><rect x="23" y="22" width="3" height="1"/><rect x="27" y="22" width="2" height="1"/><rect x="3" y="23" width="1" height="1"/><rect x="5" y="23" width="1" height="1"/><rect x="22" y="23" width="3" height="1"/><rect x="26" y="23" width="2" height="1"/><rect x="3" y="24" width="1" height="1"/><rect x="5" y="24" width="1" height="1"/><rect x="22" y="24" width="5" height="1"/><rect x="28" y="24" width="1" height="1"/><rect x="2" y="25" width="1" height="1"/><rect x="4" y="25" width="1" height="1"/><rect x="6" y="25" width="1" height="1"/><rect x="21" y="25" width="1" height="1"/><rect x="23" y="25" width="3" height="1"/><rect x="27" y="25" width="1" height="1"/><rect x="29" y="25" width="1" height="1"/><rect x="1" y="26" width="2" height="1"/><rect x="4" y="26" width="1" height="1"/><rect x="6" y="26" width="1" height="1"/><rect x="20" y="26" width="4" height="1"/><rect x="25" y="26" width="2" height="1"/><rect x="28" y="26" width="1" height="1"/><rect x="30" y="26" width="1" height="1"/></g><g fill="#a75315"><rect x="8" y="7" width="4" height="1"/><rect x="17" y="7" width="4" height="1"/><rect x="7" y="8" width="1" height="1"/><rect x="12" y="8" width="5" height="1"/><rect x="21" y="8" width="1" height="1"/><rect x="7" y="9" width="1" height="1"/><rect x="22" y="9" width="1" height="1"/><rect x="6" y="10" width="1" height="1"/><rect x="23" y="10" width="1" height="1"/><rect x="5" y="11" width="1" height="1"/><rect x="24" y="11" width="1" height="1"/><rect x="5" y="12" width="1" height="1"/><rect x="24" y="12" width="1" height="1"/><rect x="5" y="13" width="1" height="1"/><rect x="25" y="13" width="1" height="1"/><rect x="5" y="14" width="1" height="1"/><rect x="25" y="14" width="1" height="1"/><rect x="4" y="15" width="1" height="1"/><rect x="25" y="15" width="1" height="1"/><rect x="4" y="16" width="1" height="1"/><rect x="25" y="16" width="1" height="1"/><rect x="4" y="17" width="1" height="1"/><rect x="26" y="17" width="4" height="1"/><rect x="3" y="18" width="1" height="1"/><rect x="25" y="18" width="1" height="1"/><rect x="30" y="18" width="1" height="1"/><rect x="3" y="19" width="1" height="1"/><rect x="28" y="19" width="1" height="1"/><rect x="30" y="19" width="1" height="1"/><rect x="3" y="20" width="1" height="1"/><rect x="27" y="20" width="1" height="1"/><rect x="30" y="20" width="1" height="1"/><rect x="3" y="21" width="1" height="1"/><rect x="26" y="21" width="1" height="1"/><rect x="30" y="21" width="1" height="1"/><rect x="2" y="22" width="1" height="1"/><rect x="5" y="22" width="1" height="1"/><rect x="26" y="22" width="1" height="1"/><rect x="29" y="22" width="1" height="1"/><rect x="2" y="23" width="1" height="1"/><rect x="4" y="23" width="1" height="1"/><rect x="6" y="23" width="1" height="1"/><rect x="25" y="23" width="1" height="1"/><rect x="28" y="23" width="1" height="1"/><rect x="2" y="24" width="1" height="1"/><rect x="4" y="24" width="1" height="1"/><rect x="6" y="24" width="1" height="1"/><rect x="21" y="24" width="1" height="1"/><rect x="27" y="24" width="1" height="1"/><rect x="1" y="25" width="1" height="1"/><rect x="3" y="25" width="1" height="1"/><rect x="5" y="25" width="1" height="1"/><rect x="7" y="25" width="1" height="1"/><rect x="20" y="25" width="1" height="1"/><rect x="22" y="25" width="1" height="1"/><rect x="26" y="25" width="1" height="1"/><rect x="28" y="25" width="1" height="1"/><rect x="3" y="26" width="1" height="1"/><rect x="5" y="26" width="1" height="1"/><rect x="7" y="26" width="1" height="1"/><rect x="18" y="26" width="2" height="1"/><rect x="24" y="26" width="1" height="1"/><rect x="27" y="26" width="1" height="1"/><rect x="29" y="26" width="1" height="1"/></g><g fill="#ac5522"><rect x="8" y="8" width="3" height="1"/><rect x="17" y="8" width="3" height="1"/><rect x="6" y="14" width="9" height="1"/><rect x="15" y="15" width="5" height="1"/><rect x="20" y="16" width="1" height="1"/><rect x="21" y="17" width="1" height="1"/></g><g fill="#142524"><rect x="8" y="9" width="1" height="1"/><rect x="17" y="9" width="1" height="1"/></g><g fill="#aeaeae"><rect x="9" y="9" width="2" height="1"/><rect x="18" y="9" width="2" height="1"/></g><g fill="#84400f"><rect x="8" y="10" width="3" height="1"/><rect x="17" y="10" width="3" height="1"/></g><g fill="#b24e64"><rect x="22" y="18" width="1" height="1"/><rect x="22" y="19" width="1" height="1"/><rect x="22" y="20" width="1" height="1"/><rect x="22" y="21" width="1" height="1"/><rect x="22" y="22" width="1" height="1"/><rect x="21" y="23" width="1" height="1"/><rect x="20" y="24" width="1" height="1"/><rect x="19" y="25" width="1" height="1"/><rect x="16" y="26" width="2" height="1"/></g><g fill="#2fa882"><rect x="0" y="27" width="1" height="1"/><rect x="31" y="27" width="1" height="1"/><rect x="0" y="28" width="2" height="1"/><rect x="4" y="28" width="2" height="1"/><rect x="29" y="28" width="3" height="1"/><rect x="0" y="29" width="5" height="1"/><rect x="24" y="29" width="8" height="1"/><rect x="0" y="30" width="7" height="1"/><rect x="16" y="30" width="16" height="1"/><rect x="0" y="31" width="32" height="1"/></g><g fill="#5c8229"><rect x="1" y="27" width="1" height="1"/><rect x="30" y="27" width="1" height="1"/><rect x="2" y="28" width="2" height="1"/><rect x="24" y="28" width="5" height="1"/><rect x="5" y="29" width="2" height="1"/><rect x="16" y="29" width="8" height="1"/><rect x="7" y="30" width="9" height="1"/></g><g fill="#4b6c1e"><rect x="2" y="27" width="3" height="1"/><rect x="6" y="28" width="3" height="1"/><rect x="11" y="28" width="4" height="1"/><rect x="16" y="28" width="7" height="1"/><rect x="9" y="29" width="6" height="1"/></g><g fill="#3d5818"><rect x="5" y="27" width="1" height="1"/><rect x="7" y="27" width="4" height="1"/><rect x="12" y="27" width="3" height="1"/><rect x="16" y="27" width="6" height="1"/><rect x="23" y="27" width="6" height="1"/><rect x="9" y="28" width="2" height="1"/><rect x="15" y="28" width="1" height="1"/><rect x="23" y="28" width="1" height="1"/><rect x="7" y="29" width="2" height="1"/><rect x="15" y="29" width="1" height="1"/></g><g fill="#354e15"><rect x="6" y="27" width="1" height="1"/><rect x="11" y="27" width="1" height="1"/><rect x="15" y="27" width="1" height="1"/><rect x="22" y="27" width="1" height="1"/><rect x="29" y="27" width="1" height="1"/></g></g></svg>