<svg xmlns="http://www.w3.org/2000/svg" viewBox="0 0 32 32" preserveAspectRatio="xMidYMid meet"><style>*{shape-rendering:crispEdges}</style><g transform="translate(0.0,-0.0)"><g fill="#be8484"><rect x="0" y="0" width="32" height="1"/><rect x="0" y="1" width="32" height="1"/><rect x="0" y="2" width="26" height="1"/><rect x="28" y="2" width="4" height="1"/><rect x="0" y="3" width="25" height="1"/><rect x="29" y="3" width="3" height="1"/><rect x="0" y="4" width="25" height="1"/><rect x="29" y="4" width="3" height="1"/><rect x="0" y="5" width="6" height="1"/><rect x="7" y="5" width="15" height="1"/><rect x="23" y="5" width="3" height="1"/><rect x="28" y="5" width="4" height="1"/><rect x="0" y="6" width="7" height="1"/><rect x="8" y="6" width="13" height="1"/><rect x="22" y="6" width="10" height="1"/><rect x="0" y="7" width="8" height="1"/><rect x="12" y="7" width="5" height="1"/><rect x="21" y="7" width="11" height="1"/><rect x="0" y="8" width="5" height="1"/><rect x="24" y="8" width="8" height="1"/><rect x="0" y="9" width="7" height="1"/><rect x="23" y="9" width="9" height="1"/><rect x="0" y="10" width="6" height="1"/><rect x="24" y="10" width="8" height="1"/><rect x="0" y="11" width="5" height="1"/><rect x="25" y="11" width="7" height="1"/><rect x="0" y="12" width="5" height="1"/><rect x="25" y="12" width="7" height="1"/><rect x="0" y="13" width="5" height="1"/><rect x="26" y="13" width="6" height="1"/><rect x="0" y="14" width="5" height="1"/><rect x="26" y="14" width="6" height="1"/><rect x="0" y="15" width="4" height="1"/><rect x="26" y="15" width="6" height="1"/><rect x="0" y="16" width="4" height="1"/><rect x="26" y="16" width="6" height="1"/><rect x="0" y="17" width="4" height="1"/><rect x="30" y="17" width="2" height="1"/><rect x="0" y="18" width="3" height="1"/><rect x="31" y="18" width="1" height="1"/><rect x="0" y="19" width="3" height="1"/><rect x="31" y="19" width="1" height="1"/><rect x="0" y="20" width="3" height="1"/><rect x="31" y="20" width="1" height="1"/><rect x="0" y="21" width="3" height="1"/><rect x="31" y="21" width="1" height="1"/><rect x="0" y="22" width="2" height="1"/><rect x="30" y="22" width="2" height="1"/><rect x="0" y="23" width="2" height="1"/><rect x="29" y="23" width="3" height="1"/><rect x="0" y="24" width="2" height="1"/><rect x="29" y="24" width="3" height="1"/><rect x="0" y="25" width="1" height="1"/><rect x="30" y="25" width="2" height="1"/><rect x="0" y="26" width="1" height="1"/><rect x="31" y="26" width="1" height="1"/></g><g fill="#6d7fc3"><rect x="26" y="2" width="2" height="1"/><rect x="25" y="3" width="1" height="1"/><rect x="28" y="3" width="1" height="1"/><rect x="25" y="4" width="1" height="1"/><rect x="28" y="4" width="1" height="1"/><rect x="26" y="5" width="2" height="1"/><rect x="6" y="15" width="9" height="1"/><rect x="6" y="16" width="14" height="1"/><rect x="6" y="17" width="15" height="1"/><rect x="6" y="18" width="16" height="1"/><rect x="6" y="19" width="16" height="1"/><rect x="6" y="20" width="16" height="1"/><rect x="6" y="21" width="16" height="1"/><rect x="6" y="22" width="16" height="1"/><rect x="7" y="23" width="14" height="1"/><rect x="7" y="24" width="13" height="1"/><rect x="8" y="25" width="11" height="1"/><rect x="8" y="26" width="8" height="1"/></g><g fill="#5a97aa"><rect x="26" y="3" width="2" height="1"/><rect x="26" y="4" width="2" height="1"/></g><g fill="#725895"><rect x="6" y="5" width="1" height="1"/><rect x="22" y="5" width="1" height="1"/><rect x="7" y="6" width="1" height="1"/><rect x="21" y="6" width="1" height="1"/><rect x="5" y="8" width="2" height="1"/><rect x="11" y="8" width="1" height="1"/><rect x="20" y="8" width="1" height="1"/><rect x="22" y="8" width="2" height="1"/><rect x="11" y="9" width="6" height="1"/><rect x="20" y="9" width="2" height="1"/><rect x="7" y="10" width="1" height="1"/><rect x="11" y="10" width="6" height="1"/><rect x="20" y="10" width="3" height="1"/><rect x="6" y="11" width="18" height="1"/><rect x="6" y="12" width="18" height="1"/><rect x="6" y="13" width="19" height="1"/><rect x="15" y="14" width="10" height="1"/><rect x="5" y="15" width="1" height="1"/><rect x="20" y="15" width="5" height="1"/><rect x="5" y="16" width="1" height="1"/><rect x="21" y="16" width="4" height="1"/><rect x="5" y="17" width="1" height="1"/><rect x="22" y="17" width="4" height="1"/><rect x="4" y="18" width="2" height="1"/><rect x="23" y="18" width="2" height="1"/><rect x="26" y="18" width="4" height="1"/><rect x="4" y="19" width="2" height="1"/><rect x="23" y="19" width="5" height="1"/><rect x="29" y="19" width="1" height="1"/><rect x="4" y="20" width="2" height="1"/><rect x="23" y="20" width="4" height="1"/><rect x="28" y="20" width="2" height="1"/><rect x="4" y="21" width="2" height="1"/><rect x="23" y="21" width="3" height="1"/><rect x="27" y="21" width="3" height="1"/><rect x="3" y="22" width="2" height="1"/><rect x="23" y="22" width="3" height="1"/><rect x="27" y="22" width="2" height="1"/><rect x="3" y="23" width="1" height="1"/><rect x="5" y="23" width="1" height="1"/><rect x="22" y="23" width="3" height="1"/><rect x="26" y="23" width="2" height="1"/><rect x="3" y="24" width="1" height="1"/><rect x="5" y="24" width="1" height="1"/><rect x="22" y="24" width="5" height="1"/><rect x="28" y="24" width="1" height="1"/><rect x="2" y="25" width="1" height="1"/><rect x="4" y="25" width="1" height="1"/><rect x="6" y="25" width="1" height="1"/><rect x="21" y="25" width="1" height="1"/><rect x="23" y="25" width="3" height="1"/><rect x="27" y="25" width="1" height="1"/><rect x="29" y="25" width="1" height="1"/><rect x="1" y="26" width="2" height="1"/><rect x="4" y="26" width="1" height="1"/><rect x="6" y="26" width="1" height="1"/><rect x="20" y="26" width="4" height="1"/><rect x="25" y="26" width="2" height="1"/><rect x="28" y="26" width="1" height="1"/><rect x="30" y="26" width="1" height="1"/></g><g fill="#8466ad"><rect x="8" y="7" width="4" height="1"/><rect x="17" y="7" width="4" height="1"/><rect x="7" y="8" width="1" height="1"/><rect x="12" y="8" width="5" height="1"/><rect x="21" y="8" width="1" height="1"/><rect x="7" y="9" width="1" height="1"/><rect x="22" y="9" width="1" height="1"/><rect x="6" y="10" width="1" height="1"/><rect x="23" y="10" width="1" height="1"/><rect x="5" y="11" width="1" height="1"/><rect x="24" y="11" width="1" height="1"/><rect x="5" y="12" width="1" height="1"/><rect x="24" y="12" width="1" height="1"/><rect x="5" y="13" width="1" height="1"/><rect x="25" y="13" width="1" height="1"/><rect x="5" y="14" width="1" height="1"/><rect x="25" y="14" width="1" height="1"/><rect x="4" y="15" width="1" height="1"/><rect x="25" y="15" width="1" height="1"/><rect x="4" y="16" width="1" height="1"/><rect x="25" y="16" width="1" height="1"/><rect x="4" y="17" width="1" height="1"/><rect x="26" y="17" width="4" height="1"/><rect x="3" y="18" width="1" height="1"/><rect x="25" y="18" width="1" height="1"/><rect x="30" y="18" width="1" height="1"/><rect x="3" y="19" width="1" height="1"/><rect x="28" y="19" width="1" height="1"/><rect x="30" y="19" width="1" height="1"/><rect x="3" y="20" width="1" height="1"/><rect x="27" y="20" width="1" height="1"/><rect x="30" y="20" width="1" height="1"/><rect x="3" y="21" width="1" height="1"/><rect x="26" y="21" width="1" height="1"/><rect x="30" y="21" width="1" height="1"/><rect x="2" y="22" width="1" height="1"/><rect x="5" y="22" width="1" height="1"/><rect x="26" y="22" width="1" height="1"/><rect x="29" y="22" width="1" height="1"/><rect x="2" y="23" width="1" height="1"/><rect x="4" y="23" width="1" height="1"/><rect x="6" y="23" width="1" height="1"/><rect x="25" y="23" width="1" height="1"/><rect x="28" y="23" width="1" height="1"/><rect x="2" y="24" width="1" height="1"/><rect x="4" y="24" width="1" height="1"/><rect x="6" y="24" width="1" height="1"/><rect x="21" y="24" width="1" height="1"/><rect x="27" y="24" width="1" height="1"/><rect x="1" y="25" width="1" height="1"/><rect x="3" y="25" width="1" height="1"/><rect x="5" y="25" width="1" height="1"/><rect x="7" y="25" width="1" height="1"/><rect x="20" y="25" width="1" height="1"/><rect x="22" y="25" width="1" height="1"/><rect x="26" y="25" width="1" height="1"/><rect x="28" y="25" width="1" height="1"/><rect x="3" y="26" width="1" height="1"/><rect x="5" y="26" width="1" height="1"/><rect x="7" y="26" width="1" height="1"/><rect x="18" y="26" width="2" height="1"/><rect x="24" y="26" width="1" height="1"/><rect x="27" y="26" width="1" height="1"/><rect x="29" y="26" width="1" height="1"/></g><g fill="#8f76b8"><rect x="8" y="8" width="3" height="1"/><rect x="17" y="8" width="3" height="1"/><rect x="6" y="14" width="9" height="1"/><rect x="15" y="15" width="5" height="1"/><rect x="20" y="16" width="1" height="1"/><rect x="21" y="17" width="1" height="1"/></g><g fill="#2e2e26"><rect x="8" y="9" width="1" height="1"/><rect x="17" y="9" width="1" height="1"/></g><g fill="#fefefe"><rect x="9" y="9" width="2" height="1"/><rect x="18" y="9" width="2" height="1"/></g><g fill="#674e89"><rect x="8" y="10" width="3" height="1"/><rect x="17" y="10" width="3" height="1"/></g><g fill="#9facd9"><rect x="22" y="18" width="1" height="1"/><rect x="22" y="19" width="1" height="1"/><rect x="22" y="20" width="1" height="1"/><rect x="22" y="21" width="1" height="1"/><rect x="22" y="22" width="1" height="1"/><rect x="21" y="23" width="1" height="1"/><rect x="20" y="24" width="1" height="1"/><rect x="19" y="25" width="1" height="1"/><rect x="16" y="26" width="2" height="1"/></g><g fill="#baa880"><rect x="0" y="27" width="1" height="1"/><rect x="31" y="27" width="1" height="1"/><rect x="0" y="28" width="2" height="1"/><rect x="4" y="28" width="2" height="1"/><rect x="29" y="28" width="3" height="1"/><rect x="0" y="29" width="5" height="1"/><rect x="24" y="29" width="8" height="1"/><rect x="0" y="30" width="7" height="1"/><rect x="16" y="30" width="16" height="1"/><rect x="0" y="31" width="32" height="1"/></g><g fill="#946680"><rect x="1" y="27" width="1" height="1"/><rect x="30" y="27" width="1" height="1"/><rect x="2" y="28" width="2" height="1"/><rect x="24" y="28" width="5" height="1"/><rect x="5" y="29" width="2" height="1"/><rect x="16" y="29" width="8" height="1"/><rect x="7" y="30" width="9" height="1"/></g><g fill="#795168"><rect x="2" y="27" width="3" height="1"/><rect x="6" y="28" width="3" height="1"/><rect x="11" y="28" width="4" height="1"/><rect x="16" y="28" width="7" height="1"/><rect x="9" y="29" width="6" height="1"/></g><g fill="#624154"><rect x="5" y="27" width="1" height="1"/><rect x="7" y="27" width="4" height="1"/><rect x="12" y="27" width="3" height="1"/><rect x="16" y="27" width="6" height="1"/><rect x="23" y="27" width="6" height="1"/><rect x="9" y="28" width="2" height="1"/><rect x="15" y="28" width="1" height="1"/><rect x="23" y="28" width="1" height="1"/><rect x="7" y="29" width="2" height="1"/><rect x="15" y="29" width="1" height="1"/></g><g fill="#573a4a"><rect x="6" y="27" width="1" height="1"/><rect x="11" y="27" width="1" height="1"/><rect x="15" y="27" width="1" height="1"/><rect x="22" y="27" width="1" height="1"/><rect x="29" y="27" width="1" height="1"/></g></g><g transform="translate(0.35,-0.55)"><g fill="#a27070"><rect x="0" y="0" width="32" height="1"/><rect x="0" y="1" width="32" height="1"/><rect x="0" y="2" width="26" height="1"/><rect x="28" y="2" width="4" height="1"/><rect x="0" y="3" width="25" height="1"/><rect x="29" y="3" width="3" height="1"/><rect x="0" y="4" width="25" height="1"/><rect x="29" y="4" width="3" height="1"/><rect x="0" y="5" width="6" height="1"/><rect x="7" y="5" width="15" height="1"/><rect x="23" y="5" width="3" height="1"/><rect x="28" y="5" width="4" height="1"/><rect x="0" y="6" width="7" height="1"/><rect x="8" y="6" width="13" height="1"/><rect x="22" y="6" width="10" height="1"/><rect x="0" y="7" width="8" height="1"/><rect x="12" y="7" width="5" height="1"/><rect x="21" y="7" width="11" height="1"/><rect x="0" y="8" width="5" height="1"/><rect x="24" y="8" width="8" height="1"/><rect x="0" y="9" width="7" height="1"/><rect x="23" y="9" width="9" height="1"/><rect x="0" y="10" width="6" height="1"/><rect x="24" y="10" width="8" height="1"/><rect x="0" y="11" width="5" height="1"/><rect x="25" y="11" width="7" height="1"/><rect x="0" y="12" width="5" height="1"/><rect x="25" y="12" width="7" height="1"/><rect x="0" y="13" width="5" height="1"/><rect x="26" y="13" width="6" height="1"/><rect x="0" y="14" width="5" height="1"/><rect x="26" y="14" width="6" height="1"/><rect x="0" y="15" width="4" height="1"/><rect x="26" y="15" width="6" height="1"/><rect x="0" y="16" width="4" height="1"/><rect x="26" y="16" width="6" height="1"/><rect x="0" y="17" width="4" height="1"/><rect x="30" y="17" width="2" height="1"/><rect x="0" y="18" width="3" height="1"/><rect x="31" y="18" width="1" height="1"/><rect x="0" y="19" width="3" height="1"/><rect x="31" y="19" width="1" height="1"/><rect x="0" y="20" width="3" height="1"/><rect x="31" y="20" width="1" height="1"/><rect x="0" y="21" width="3" height="1"/><rect x="31" y="21" width="1" height="1"/><rect x="0" y="22" width="2" height="1"/><rect x="30" y="22" width="2" height="1"/><rect x="0" y="23" width="2" height="1"/><rect x="29" y="23" width="3" height="1"/><rect x="0" y="24" width="2" height="1"/><rect x="29" y="24" width="3" height="1"/><rect x="0" y="25" width="1" height="1"/><rect x="30" y="25" width="2" height="1"/><rect x="0" y="26" width="1" height="1"/><rect x="31" y="26" width="1" height="1"/></g><g fill="#5d6ca6"><rect x="26" y="2" width="2" height="1"/><rect x="25" y="3" width="1" height="1"/><rect x="28" y="3" width="1" height="1"/><rect x="25" y="4" width="1" height="1"/><rect x="28" y="4" width="1" height="1"/><rect x="26" y="5" width="2" height="1"/><rect x="6" y="15" width="9" height="1"/><rect x="6" y="16" width="14" height="1"/><rect x="6" y="17" width="15" height="1"/><rect x="6" y="18" width="16" height="1"/><rect x="6" y="19" width="16" height="1"/><rect x="6" y="20" width="16" height="1"/><rect x="6" y="21" width="16" height="1"/><rect x="6" y="22" width="16" height="1"/><rect x="7" y="23" width="14" height="1"/><rect x="7" y="24" width="13" height="1"/><rect x="8" y="25" width="11" height="1"/><rect x="8" y="26" width="8" height="1"/></g><g fill="#4c8090"><rect x="26" y="3" width="2" height="1"/><rect x="26" y="4" width="2" height="1"/></g><g fill="#614b7f"><rect x="6" y="5" width="1" height="1"/><rect x="22" y="5" width="1" height="1"/><rect x="7" y="6" width="1" height="1"/><rect x="21" y="6" width="1" height="1"/><rect x="5" y="8" width="2" height="1"/><rect x="11" y="8" width="1" height="1"/><rect x="20" y="8" width="1" height="1"/><rect x="22" y="8" width="2" height="1"/><rect x="11" y="9" width="6" height="1"/><rect x="20" y="9" width="2" height="1"/><rect x="7" y="10" width="1" height="1"/><rect x="11" y="10" width="6" height="1"/><rect x="20" y="10" width="3" height="1"/><rect x="6" y="11" width="18" height="1"/><rect x="6" y="12" width="18" height="1"/><rect x="6" y="13" width="19" height="1"/><rect x="15" y="14" width="10" height="1"/><rect x="5" y="15" width="1" height="1"/><rect x="20" y="15" width="5" height="1"/><rect x="5" y="16" width="1" height="1"/><rect x="21" y="16" width="4" height="1"/><rect x="5" y="17" width="1" height="1"/><rect x="22" y="17" width="4" height="1"/><rect x="4" y="18" width="2" height="1"/><rect x="23" y="18" width="2" height="1"/><rect x="26" y="18" width="4" height="1"/><rect x="4" y="19" width="2" height="1"/><rect x="23" y="19" width="5" height="1"/><rect x="29" y="19" width="1" height="1"/><rect x="4" y="20" width="2" height="1"/><rect x="23" y="20" width="4" height="1"/><rect x="28" y="20" width="2" height="1"/><rect x="4" y="21" width="2" height="1"/><rect x="23" y="21" width="3" height="1"/><rect x="27" y="21" width="3" height="1"/><rect x="3" y="22" width="2" height="1"/><rect x="23" y="22" width="3" height="1"/><rect x="27" y="22" width="2" height="1"/><rect x="3" y="23" width="1" height="1"/><rect x="5" y="23" width="1" height="1"/><rect x="22" y="23" width="3" height="1"/><rect x="26" y="23" width="2" height="1"/><rect x="3" y="24" width="1" height="1"/><rect x="5" y="24" width="1" height="1"/><rect x="22" y="24" width="5" height="1"/><rect x="28" y="24" width="1" height="1"/><rect x="2" y="25" width="1" height="1"/><rect x="4" y="25" width="1" height="1"/><rect x="6" y="25" width="1" height="1"/><rect x="21" y="25" width="1" height="1"/><rect x="23" y="25" width="3" height="1"/><rect x="27" y="25" width="1" height="1"/><rect x="29" y="25" width="1" height="1"/><rect x="1" y="26" width="2" height="1"/><rect x="4" y="26" width="1" height="1"/><rect x="6" y="26" width="1" height="1"/><rect x="20" y="26" width="4" height="1"/><rect x="25" y="26" width="2" height="1"/><rect x="28" y="26" width="1" height="1"/><rect x="30" y="26" width="1" height="1"/></g><g fill="#705793"><rect x="8" y="7" width="4" height="1"/><rect x="17" y="7" width="4" height="1"/><rect x="7" y="8" width="1" height="1"/><rect x="12" y="8" width="5" height="1"/><rect x="21" y="8" width="1" height="1"/><rect x="7" y="9" width="1" height="1"/><rect x="22" y="9" width="1" height="1"/><rect x="6" y="10" width="1" height="1"/><rect x="23" y="10" width="1" height="1"/><rect x="5" y="11" width="1" height="1"/><rect x="24" y="11" width="1" height="1"/><rect x="5" y="12" width="1" height="1"/><rect x="24" y="12" width="1" height="1"/><rect x="5" y="13" width="1" height="1"/><rect x="25" y="13" width="1" height="1"/><rect x="5" y="14" width="1" height="1"/><rect x="25" y="14" width="1" height="1"/><rect x="4" y="15" width="1" height="1"/><rect x="25" y="15" width="1" height="1"/><rect x="4" y="16" width="1" height="1"/><rect x="25" y="16" width="1" height="1"/><rect x="4" y="17" width="1" height="1"/><rect x="26" y="17" width="4" height="1"/><rect x="3" y="18" width="1" height="1"/><rect x="25" y="18" width="1" height="1"/><rect x="30" y="18" width="1" height="1"/><rect x="3" y="19" width="1" height="1"/><rect x="28" y="19" width="1" height="1"/><rect x="30" y="19" width="1" height="1"/><rect x="3" y="20" width="1" height="1"/><rect x="27" y="20" width="1" height="1"/><rect x="30" y="20" width="1" height="1"/><rect x="3" y="21" width="1" height="1"/><rect x="26" y="21" width="1" height="1"/><rect x="30" y="21" width="1" height="1"/><rect x="2" y="22" width="1" height="1"/><rect x="5" y="22" width="1" height="1"/><rect x="26" y="22" width="1" height="1"/><rect x="29" y="22" width="1" height="1"/><rect x="2" y="23" width="1" height="1"/><rect x="4" y="23" width="1" height="1"/><rect x="6" y="23" width="1" height="1"/><rect x="25" y="23" width="1" height="1"/><rect x="28" y="23" width="1" height="1"/><rect x="2" y="24" width="1" height="1"/><rect x="4" y="24" width="1" height="1"/><rect x="6" y="24" width="1" height="1"/><rect x="21" y="24" width="1" height="1"/><rect x="27" y="24" width="1" height="1"/><rect x="1" y="25" width="1" height="1"/><rect x="3" y="25" width="1" height="1"/><rect x="5" y="25" width="1" height="1"/><rect x="7" y="25" width="1" height="1"/><rect x="20" y="25" width="1" height="1"/><rect x="22" y="25" width="1" height="1"/><rect x="26" y="25" width="1" height="1"/><rect x="28" y="25" width="1" height="1"/><rect x="3" y="26" width="1" height="1"/><rect x="5" y="26" width="1" height="1"/><rect x="7" y="26" width="1" height="1"/><rect x="18" y="26" width="2" height="1"/><rect x="24" y="26" width="1" height="1"/><rect x="27" y="26" width="1" height="1"/><rect x="29" y="26" width="1" height="1"/></g><g fill="#7a649c"><rect x="8" y="8" width="3" height="1"/><rect x="17" y="8" width="3" height="1"/><rect x="6" y="14" width="9" height="1"/><rect x="15" y="15" width="5" height="1"/><rect x="20" y="16" width="1" height="1"/><rect x="21" y="17" width="1" height="1"/></g><g fill="#272720"><rect x="8" y="9" width="1" height="1"/><rect x="17" y="9" width="1" height="1"/></g><g fill="#d8d8d8"><rect x="9" y="9" width="2" height="1"/><rect x="18" y="9" width="2" height="1"/></g><g fill="#584274"><rect x="8" y="10" width="3" height="1"/><rect x="17" y="10" width="3" height="1"/></g><g fill="#8792b8"><rect x="22" y="18" width="1" height="1"/><rect x="22" y="19" width="1" height="1"/><rect x="22" y="20" width="1" height="1"/><rect x="22" y="21" width="1" height="1"/><rect x="22" y="22" width="1" height="1"/><rect x="21" y="23" width="1" height="1"/><rect x="20" y="24" width="1" height="1"/><rect x="19" y="25" width="1" height="1"/><rect x="16" y="26" width="2" height="1"/></g><g fill="#9e8f6d"><rect x="0" y="27" width="1" height="1"/><rect x="31" y="27" width="1" height="1"/><rect x="0" y="28" width="2" height="1"/><rect x="4" y="28" width="2" height="1"/><rect x="29" y="28" width="3" height="1"/><rect x="0" y="29" width="5" height="1"/><rect x="24" y="29" width="8" height="1"/><rect x="0" y="30" width="7" height="1"/><rect x="16" y="30" width="16" height="1"/><rect x="0" y="31" width="32" height="1"/></g><g fill="#7e576d"><rect x="1" y="27" width="1" height="1"/><rect x="30" y="27" width="1" height="1"/><rect x="2" y="28" width="2" height="1"/><rect x="24" y="28" width="5" height="1"/><rect x="5" y="29" width="2" height="1"/><rect x="16" y="29" width="8" height="1"/><rect x="7" y="30" width="9" height="1"/></g><g fill="#674558"><rect x="2" y="27" width="3" height="1"/><rect x="6" y="28" width="3" height="1"/><rect x="11" y="28" width="4" height="1"/><rect x="16" y="28" width="7" height="1"/><rect x="9" y="29" width="6" height="1"/></g><g fill="#533747"><rect x="5" y="27" width="1" height="1"/><rect x="7" y="27" width="4" height="1"/><rect x="12" y="27" width="3" height="1"/><rect x="16" y="27" width="6" height="1"/><rect x="23" y="27" width="6" height="1"/><rect x="9" y="28" width="2" height="1"/><rect x="15" y="28" width="1" height="1"/><rect x="23" y="28" width="1" height="1"/><rect x="7" y="29" width="2" height="1"/><rect x="15" y="29" width="1" height="1"/></g><g fill="#4a313f"><rect x="6" y="27" width="1" height="1"/><rect x="11" y="27" width="1" height="1"/><rect x="15" y="27" width="1" height="1"/><rect x="22" y="27" width="1" height="1"/><rect x="29" y="27" width="1" height="1"/></g></g><g transform="translate(0.7,-1.1)"><g fill="#855c5c"><rect x="0" y="0" width="32" height="1"/><rect x="0" y="1" width="32" height="1"/><rect x="0" y="2" width="26" height="1"/><rect x="28" y="2" width="4" height="1"/><rect x="0" y="3" width="25" height="1"/><rect x="29" y="3" width="3" height="1"/><rect x="0" y="4" width="25" height="1"/><rect x="29" y="4" width="3" height="1"/><rect x="0" y="5" width="6" height="1"/><rect x="7" y="5" width="15" height="1"/><rect x="23" y="5" width="3" height="1"/><rect x="28" y="5" width="4" height="1"/><rect x="0" y="6" width="7" height="1"/><rect x="8" y="6" width="13" height="1"/><rect x="22" y="6" width="10" height="1"/><rect x="0" y="7" width="8" height="1"/><rect x="12" y="7" width="5" height="1"/><rect x="21" y="7" width="11" height="1"/><rect x="0" y="8" width="5" height="1"/><rect x="24" y="8" width="8" height="1"/><rect x="0" y="9" width="7" height="1"/><rect x="23" y="9" width="9" height="1"/><rect x="0" y="10" width="6" height="1"/><rect x="24" y="10" width="8" height="1"/><rect x="0" y="11" width="5" height="1"/><rect x="25" y="11" width="7" height="1"/><rect x="0" y="12" width="5" height="1"/><rect x="25" y="12" width="7" height="1"/><rect x="0" y="13" width="5" height="1"/><rect x="26" y="13" width="6" height="1"/><rect x="0" y="14" width="5" height="1"/><rect x="26" y="14" width="6" height="1"/><rect x="0" y="15" width="4" height="1"/><rect x="26" y="15" width="6" height="1"/><rect x="0" y="16" width="4" height="1"/><rect x="26" y="16" width="6" height="1"/><rect x="0" y="17" width="4" height="1"/><rect x="30" y="17" width="2" height="1"/><rect x="0" y="18" width="3" height="1"/><rect x="31" y="18" width="1" height="1"/><rect x="0" y="19" width="3" height="1"/><rect x="31" y="19" width="1" height="1"/><rect x="0" y="20" width="3" height="1"/><rect x="31" y="20" width="1" height="1"/><rect x="0" y="21" width="3" height="1"/><rect x="31" y="21" width="1" height="1"/><rect x="0" y="22" width="2" height="1"/><rect x="30" y="22" width="2" height="1"/><rect x="0" y="23" width="2" height="1"/><rect x="29" y="23" width="3" height="1"/><rect x="0" y="24" width="2" height="1"/><rect x="29" y="24" width="3" height="1"/><rect x="0" y="25" width="1" height="1"/><rect x="30" y="25" width="2" height="1"/><rect x="0" y="26" width="1" height="1"/><rect x="31" y="26" width="1" height="1"/></g><g fill="#4c5988"><rect x="26" y="2" width="2" height="1"/><rect x="25" y="3" width="1" height="1"/><rect x="28" y="3" width="1" height="1"/><rect x="25" y="4" width="1" height="1"/><rect x="28" y="4" width="1" height="1"/><rect x="26" y="5" width="2" height="1"/><rect x="6" y="15" width="9" height="1"/><rect x="6" y="16" width="14" height="1"/><rect x="6" y="17" width="15" height="1"/><rect x="6" y="18" width="16" height="1"/><rect x="6" y="19" width="16" height="1"/><rect x="6" y="20" width="16" height="1"/><rect x="6" y="21" width="16" height="1"/><rect x="6" y="22" width="16" height="1"/><rect x="7" y="23" width="14" height="1"/><rect x="7" y="24" width="13" height="1"/><rect x="8" y="25" width="11" height="1"/><rect x="8" y="26" width="8" height="1"/></g><g fill="#3f6a77"><rect x="26" y="3" width="2" height="1"/><rect x="26" y="4" width="2" height="1"/></g><g fill="#503e68"><rect x="6" y="5" width="1" height="1"/><rect x="22" y="5" width="1" height="1"/><rect x="7" y="6" width="1" height="1"/><rect x="21" y="6" width="1" height="1"/><rect x="5" y="8" width="2" height="1"/><rect x="11" y="8" width="1" height="1"/><rect x="20" y="8" width="1" height="1"/><rect x="22" y="8" width="2" height="1"/><rect x="11" y="9" width="6" height="1"/><rect x="20" y="9" width="2" height="1"/><rect x="7" y="10" width="1" height="1"/><rect x="11" y="10" width="6" height="1"/><rect x="20" y="10" width="3" height="1"/><rect x="6" y="11" width="18" height="1"/><rect x="6" y="12" width="18" height="1"/><rect x="6" y="13" width="19" height="1"/><rect x="15" y="14" width="10" height="1"/><rect x="5" y="15" width="1" height="1"/><rect x="20" y="15" width="5" height="1"/><rect x="5" y="16" width="1" height="1"/><rect x="21" y="16" width="4" height="1"/><rect x="5" y="17" width="1" height="1"/><rect x="22" y="17" width="4" height="1"/><rect x="4" y="18" width="2" height="1"/><rect x="23" y="18" width="2" height="1"/><rect x="26" y="18" width="4" height="1"/><rect x="4" y="19" width="2" height="1"/><rect x="23" y="19" width="5" height="1"/><rect x="29" y="19" width="1" height="1"/><rect x="4" y="20" width="2" height="1"/><rect x="23" y="20" width="4" height="1"/><rect x="28" y="20" width="2" height="1"/><rect x="4" y="21" width="2" height="1"/><rect x="23" y="21" width="3" height="1"/><rect x="27" y="21" width="3" height="1"/><rect x="3" y="22" width="2" height="1"/><rect x="23" y="22" width="3" height="1"/><rect x="27" y="22" width="2" height="1"/><rect x="3" y="23" width="1" height="1"/><rect x="5" y="23" width="1" height="1"/><rect x="22" y="23" width="3" height="1"/><rect x="26" y="23" width="2" height="1"/><rect x="3" y="24" width="1" height="1"/><rect x="5" y="24" width="1" height="1"/><rect x="22" y="24" width="5" height="1"/><rect x="28" y="24" width="1" height="1"/><rect x="2" y="25" width="1" height="1"/><rect x="4" y="25" width="1" height="1"/><rect x="6" y="25" width="1" height="1"/><rect x="21" y="25" width="1" height="1"/><rect x="23" y="25" width="3" height="1"/><rect x="27" y="25" width="1" height="1"/><rect x="29" y="25" width="1" height="1"/><rect x="1" y="26" width="2" height="1"/><rect x="4" y="26" width="1" height="1"/><rect x="6" y="26" width="1" height="1"/><rect x="20" y="26" width="4" height="1"/><rect x="25" y="26" width="2" height="1"/><rect x="28" y="26" width="1" height="1"/><rect x="30" y="26" width="1" height="1"/></g><g fill="#5c4779"><rect x="8" y="7" width="4" height="1"/><rect x="17" y="7" width="4" height="1"/><rect x="7" y="8" width="1" height="1"/><rect x="12" y="8" width="5" height="1"/><rect x="21" y="8" width="1" height="1"/><rect x="7" y="9" width="1" height="1"/><rect x="22" y="9" width="1" height="1"/><rect x="6" y="10" width="1" height="1"/><rect x="23" y="10" width="1" height="1"/><rect x="5" y="11" width="1" height="1"/><rect x="24" y="11" width="1" height="1"/><rect x="5" y="12" width="1" height="1"/><rect x="24" y="12" width="1" height="1"/><rect x="5" y="13" width="1" height="1"/><rect x="25" y="13" width="1" height="1"/><rect x="5" y="14" width="1" height="1"/><rect x="25" y="14" width="1" height="1"/><rect x="4" y="15" width="1" height="1"/><rect x="25" y="15" width="1" height="1"/><rect x="4" y="16" width="1" height="1"/><rect x="25" y="16" width="1" height="1"/><rect x="4" y="17" width="1" height="1"/><rect x="26" y="17" width="4" height="1"/><rect x="3" y="18" width="1" height="1"/><rect x="25" y="18" width="1" height="1"/><rect x="30" y="18" width="1" height="1"/><rect x="3" y="19" width="1" height="1"/><rect x="28" y="19" width="1" height="1"/><rect x="30" y="19" width="1" height="1"/><rect x="3" y="20" width="1" height="1"/><rect x="27" y="20" width="1" height="1"/><rect x="30" y="20" width="1" height="1"/><rect x="3" y="21" width="1" height="1"/><rect x="26" y="21" width="1" height="1"/><rect x="30" y="21" width="1" height="1"/><rect x="2" y="22" width="1" height="1"/><rect x="5" y="22" width="1" height="1"/><rect x="26" y="22" width="1" height="1"/><rect x="29" y="22" width="1" height="1"/><rect x="2" y="23" width="1" height="1"/><rect x="4" y="23" width="1" height="1"/><rect x="6" y="23" width="1" height="1"/><rect x="25" y="23" width="1" height="1"/><rect x="28" y="23" width="1" height="1"/><rect x="2" y="24" width="1" height="1"/><rect x="4" y="24" width="1" height="1"/><rect x="6" y="24" width="1" height="1"/><rect x="21" y="24" width="1" height="1"/><rect x="27" y="24" width="1" height="1"/><rect x="1" y="25" width="1" height="1"/><rect x="3" y="25" width="1" height="1"/><rect x="5" y="25" width="1" height="1"/><rect x="7" y="25" width="1" height="1"/><rect x="20" y="25" width="1" height="1"/><rect x="22" y="25" width="1" height="1"/><rect x="26" y="25" width="1" height="1"/><rect x="28" y="25" width="1" height="1"/><rect x="3" y="26" width="1" height="1"/><rect x="5" y="26" width="1" height="1"/><rect x="7" y="26" width="1" height="1"/><rect x="18" y="26" width="2" height="1"/><rect x="24" y="26" width="1" height="1"/><rect x="27" y="26" width="1" height="1"/><rect x="29" y="26" width="1" height="1"/></g><g fill="#645381"><rect x="8" y="8" width="3" height="1"/><rect x="17" y="8" width="3" height="1"/><rect x="6" y="14" width="9" height="1"/><rect x="15" y="15" width="5" height="1"/><rect x="20" y="16" width="1" height="1"/><rect x="21" y="17" width="1" height="1"/></g><g fill="#20201b"><rect x="8" y="9" width="1" height="1"/><rect x="17" y="9" width="1" height="1"/></g><g fill="#b2b2b2"><rect x="9" y="9" width="2" height="1"/><rect x="18" y="9" width="2" height="1"/></g><g fill="#483760"><rect x="8" y="10" width="3" height="1"/><rect x="17" y="10" width="3" height="1"/></g><g fill="#6f7898"><rect x="22" y="18" width="1" height="1"/><rect x="22" y="19" width="1" height="1"/><rect x="22" y="20" width="1" height="1"/><rect x="22" y="21" width="1" height="1"/><rect x="22" y="22" width="1" height="1"/><rect x="21" y="23" width="1" height="1"/><rect x="20" y="24" width="1" height="1"/><rect x="19" y="25" width="1" height="1"/><rect x="16" y="26" width="2" height="1"/></g><g fill="#82765a"><rect x="0" y="27" width="1" height="1"/><rect x="31" y="27" width="1" height="1"/><rect x="0" y="28" width="2" height="1"/><rect x="4" y="28" width="2" height="1"/><rect x="29" y="28" width="3" height="1"/><rect x="0" y="29" width="5" height="1"/><rect x="24" y="29" width="8" height="1"/><rect x="0" y="30" width="7" height="1"/><rect x="16" y="30" width="16" height="1"/><rect x="0" y="31" width="32" height="1"/></g><g fill="#68475a"><rect x="1" y="27" width="1" height="1"/><rect x="30" y="27" width="1" height="1"/><rect x="2" y="28" width="2" height="1"/><rect x="24" y="28" width="5" height="1"/><rect x="5" y="29" width="2" height="1"/><rect x="16" y="29" width="8" height="1"/><rect x="7" y="30" width="9" height="1"/></g><g fill="#553949"><rect x="2" y="27" width="3" height="1"/><rect x="6" y="28" width="3" height="1"/><rect x="11" y="28" width="4" height="1"/><rect x="16" y="28" width="7" height="1"/><rect x="9" y="29" width="6" height="1"/></g><g fill="#452e3b"><rect x="5" y="27" width="1" height="1"/><rect x="7" y="27" width="4" height="1"/><rect x="12" y="27" width="3" height="1"/><rect x="16" y="27" width="6" height="1"/><rect x="23" y="27" width="6" height="1"/><rect x="9" y="28" width="2" height="1"/><rect x="15" y="28" width="1" height="1"/><rect x="23" y="28" width="1" height="1"/><rect x="7" y="29" width="2" height="1"/><rect x="15" y="29" width="1" height="1"/></g><g fill="#3d2934"><rect x="6" y="27" width="1" height="1"/><rect x="11" y="27" width="1" height="1"/><rect x="15" y="27" width="1" height="1"/><rect x="22" y="27" width="1" height="1"/><rect x="29" y="27" width="1" height="1"/></g></g></svg>